<svg xmlns="http://www.w3.org/2000/svg" width="235.428" height="70.032" viewBox="0 0 235.428 70.032"><g transform="translate(-347 -7665)"><path d="M34.391-.983A35.016,35.016,0,1,0,69.407,34.033,35.017,35.017,0,0,0,34.391-.983m-.007,62.609A27.851,27.851,0,1,1,62.235,33.775,27.851,27.851,0,0,1,34.384,61.626" transform="translate(347.625 7665.983)" fill="#fff"/><path d="M44.289-.863,34.021,55.122h6.365L50.876-.789a35.587,35.587,0,0,0-6.587-.073" transform="translate(334.825 7665.982)" fill="#6ac5ef"/><path d="M58.985,17.327h6.568L54.61,75.744a35.5,35.5,0,0,1-6.541-.194Z" transform="translate(329.635 7659.218)" fill="#40a8de"/><path d="M18.126,38.7v6.568H76.17A35.341,35.341,0,0,0,74.888,38.7Z" transform="translate(340.697 7651.322)" fill="#6ac5ef"/><path d="M58.27,59.32v6.7H.822a34.207,34.207,0,0,1-1.244-6.7Z" transform="translate(347.55 7643.704)" fill="#40a8de"/><path d="M133.069,26.264V37.447H146V26.264h3.49V52.99H146V40.46H133.069V52.99h-3.45V26.264Z" transform="translate(299.505 7655.917)" fill="#fff"/><path d="M171.27,44.584l-2.777,8.408h-3.568l9.081-26.727h4.164l9.119,26.727H183.6l-2.856-8.408Zm8.763-2.7L177.416,34.2c-.595-1.745-.991-3.332-1.388-4.878h-.079c-.4,1.586-.832,3.213-1.348,4.838l-2.617,7.732Z" transform="translate(286.461 7655.916)" fill="#fff"/><path d="M202.345,48.532a12.221,12.221,0,0,0,6.186,1.745c3.529,0,5.591-1.864,5.591-4.56,0-2.5-1.428-3.926-5.037-5.314-4.361-1.547-7.058-3.807-7.058-7.574,0-4.163,3.45-7.256,8.645-7.256a12.144,12.144,0,0,1,5.909,1.308l-.951,2.815a10.652,10.652,0,0,0-5.076-1.269c-3.648,0-5.036,2.181-5.036,4.006,0,2.5,1.626,3.726,5.315,5.155,4.52,1.744,6.821,3.925,6.821,7.851,0,4.124-3.054,7.693-9.359,7.693a13.822,13.822,0,0,1-6.821-1.706Z" transform="translate(272.958 7656.171)" fill="#fff"/><path d="M235.367,26.264V37.447h12.927V26.264h3.49V52.99h-3.49V40.46H235.367V52.99h-3.45V26.264Z" transform="translate(261.71 7655.917)" fill="#fff"/><path d="M291.719,39.095c0,9.2-5.592,14.076-12.412,14.076-7.059,0-12.015-5.471-12.015-13.56,0-8.486,5.273-14.038,12.411-14.038,7.3,0,12.016,5.591,12.016,13.522m-20.74.436c0,5.709,3.093,10.824,8.526,10.824,5.472,0,8.566-5.035,8.566-11.1,0-5.314-2.777-10.865-8.527-10.865-5.71,0-8.565,5.274-8.565,11.143" transform="translate(248.64 7656.171)" fill="#fff"/><path d="M310.647,52.992V26.265h3.767l8.565,13.521a75.7,75.7,0,0,1,4.8,8.684l.079-.039c-.317-3.569-.4-6.821-.4-10.985V26.265h3.252V52.992h-3.49l-8.485-13.562a84.711,84.711,0,0,1-5-8.923l-.119.04c.2,3.371.279,6.583.279,11.024V52.992Z" transform="translate(232.622 7655.916)" fill="#fff"/><path d="M362.754,40.461H352.364V50.1h11.58v2.895h-15.03V26.265h14.434v2.894H352.364v8.446h10.389Z" transform="translate(218.484 7655.916)" fill="#fff"/><g transform="translate(429.256 7713.393)"><path d="M138.559,93.1a7.7,7.7,0,0,1-3.318.73c-3.248,0-5.413-2.377-5.413-5.765a5.668,5.668,0,0,1,5.813-6.025,5.783,5.783,0,0,1,2.965.706l-.4.918A5.068,5.068,0,0,0,135.547,83c-3.036,0-4.589,2.307-4.589,4.965,0,2.965,1.859,4.895,4.471,4.895a6.269,6.269,0,0,0,2.824-.659Z" transform="translate(-129.828 -78.083)" fill="#fff"/><path d="M147.874,85.683c0-1.129-.023-2.283-.095-3.389h1.036l.047,2.283h.071a3.479,3.479,0,0,1,3.2-2.541,2.928,2.928,0,0,1,.471.047v1.059a3.854,3.854,0,0,0-.542-.023c-1.553,0-2.659,1.341-2.965,3.153A5.252,5.252,0,0,0,149,87.355v6.236h-1.129Z" transform="translate(-136.46 -78.083)" fill="#fff"/><path d="M158.179,87.825c0,3.6,1.977,5.036,4.307,5.036a6.557,6.557,0,0,0,3.13-.636l.282.871a7.445,7.445,0,0,1-3.554.73c-3.247,0-5.271-2.353-5.271-5.672,0-3.765,2.165-6.118,5.083-6.118,3.695,0,4.4,3.483,4.4,5.107a2.886,2.886,0,0,1-.047.682Zm7.2-.894c.023-1.577-.636-3.954-3.365-3.954-2.5,0-3.554,2.213-3.766,3.954Z" transform="translate(-139.894 -78.083)" fill="#fff"/><path d="M183.123,90.908a16.94,16.94,0,0,0,.165,2.683h-1.035l-.165-1.624h-.047a4.317,4.317,0,0,1-3.624,1.882,3.068,3.068,0,0,1-3.319-3.105c0-2.613,2.283-4.189,6.9-4.143V86.3c0-1.106-.212-3.342-2.895-3.319a4.933,4.933,0,0,0-2.848.847L175.9,83a6.241,6.241,0,0,1,3.319-.965c3.271,0,3.906,2.447,3.906,4.448Zm-1.129-3.365c-2.471-.071-5.718.306-5.718,3.013a2.159,2.159,0,0,0,2.259,2.353,3.378,3.378,0,0,0,3.341-2.259,1.887,1.887,0,0,0,.118-.683Z" transform="translate(-146.553 -78.083)" fill="#fff"/><path d="M194.293,78.49v2.494h3.225V81.9h-3.225v7.343c0,1.435.447,2.329,1.648,2.329a4.186,4.186,0,0,0,1.294-.165l.142.847a4.469,4.469,0,0,1-1.577.259,2.4,2.4,0,0,1-1.929-.776,4.121,4.121,0,0,1-.707-2.706V81.9h-1.905v-.918h1.905V78.914Z" transform="translate(-152.524 -76.772)" fill="#fff"/><path d="M205.452,77.719a.907.907,0,0,1-.871-.965.965.965,0,0,1,.917-.988.932.932,0,0,1,.895.988.915.915,0,0,1-.918.965Zm-.518,13.555v-11.3h1.129v11.3Z" transform="translate(-157.446 -75.766)" fill="#fff"/><path d="M211.678,82.446l2.636,7.013c.448,1.106.8,2.047,1.107,3.013h.047c.306-.942.73-1.93,1.153-3.013l2.683-7.013h1.177l-4.589,11.3H214.9l-4.424-11.3Z" transform="translate(-159.625 -78.234)" fill="#fff"/><path d="M229.162,87.825c0,3.6,1.977,5.036,4.307,5.036a6.557,6.557,0,0,0,3.13-.636l.282.871a7.447,7.447,0,0,1-3.554.73c-3.247,0-5.271-2.353-5.271-5.672,0-3.765,2.165-6.118,5.083-6.118,3.7,0,4.4,3.483,4.4,5.107a2.924,2.924,0,0,1-.047.682Zm7.2-.894c.023-1.577-.636-3.954-3.365-3.954-2.494,0-3.554,2.213-3.766,3.954Z" transform="translate(-166.119 -78.083)" fill="#fff"/><path d="M246.669,92.108a5,5,0,0,0,2.542.776c1.789,0,2.635-.965,2.635-2.141,0-1.248-.753-1.907-2.377-2.566-1.859-.706-2.871-1.718-2.871-3.083,0-1.648,1.294-3.059,3.483-3.059a4.419,4.419,0,0,1,2.494.706l-.424.918a3.8,3.8,0,0,0-2.259-.683,1.973,1.973,0,0,0-2.189,1.954c0,1.176.8,1.67,2.33,2.306,1.836.73,2.918,1.647,2.918,3.365,0,1.93-1.506,3.224-3.813,3.224a5.546,5.546,0,0,1-2.87-.776Z" transform="translate(-172.848 -78.083)" fill="#fff"/></g></g></svg>