<svg xmlns="http://www.w3.org/2000/svg" width="191.515" height="56.97" viewBox="0 0 191.515 56.97">
  <g id="Group_13" data-name="Group 13" transform="translate(0.625 0.983)">
    <g id="Group_11" data-name="Group 11" transform="translate(-0.625 -0.983)">
      <path id="Path_35" data-name="Path 35" d="M27.86-.983A28.485,28.485,0,1,0,56.345,27.5,28.485,28.485,0,0,0,27.86-.983m-.006,50.931A22.656,22.656,0,1,1,50.511,27.292,22.656,22.656,0,0,1,27.854,49.948" transform="translate(0.625 0.983)" fill="#221f1f"/>
      <path id="Path_36" data-name="Path 36" d="M42.374-.884,34.021,44.658H39.2L47.732-.825a28.95,28.95,0,0,0-5.359-.059" transform="translate(-16.25 0.981)" fill="#6ac5ef"/>
      <path id="Path_37" data-name="Path 37" d="M56.949,17.327h5.343l-8.9,47.521a28.877,28.877,0,0,1-5.321-.157Z" transform="translate(-23.092 -7.935)" fill="#40a8de"/>
      <path id="Path_38" data-name="Path 38" d="M18.126,38.7v5.343H65.343A28.75,28.75,0,0,0,64.3,38.7Z" transform="translate(-8.508 -18.345)" fill="#6ac5ef"/>
      <path id="Path_39" data-name="Path 39" d="M47.323,59.32v5.453H.59A27.827,27.827,0,0,1-.422,59.32Z" transform="translate(0.526 -28.389)" fill="#40a8de"/>
      <path id="Path_40" data-name="Path 40" d="M132.426,26.264v9.1h10.516v-9.1h2.839V48.005h-2.839V37.812H132.426V48.005h-2.807V26.264Z" transform="translate(-62.813 -12.288)" fill="#221f1f"/>
      <path id="Path_41" data-name="Path 41" d="M170.087,41.167l-2.259,6.839h-2.9l7.387-21.742H175.7l7.419,21.742h-3L177.8,41.167Zm7.129-2.193-2.129-6.257c-.484-1.419-.806-2.71-1.129-3.968h-.065c-.322,1.291-.677,2.613-1.1,3.936l-2.129,6.29Z" transform="translate(-80.009 -12.289)" fill="#221f1f"/>
      <path id="Path_42" data-name="Path 42" d="M202.182,44.25a9.942,9.942,0,0,0,5.032,1.419c2.871,0,4.548-1.516,4.548-3.71,0-2.032-1.161-3.194-4.1-4.322-3.548-1.258-5.742-3.1-5.742-6.161,0-3.387,2.807-5.9,7.032-5.9a9.879,9.879,0,0,1,4.807,1.064l-.774,2.29a8.665,8.665,0,0,0-4.13-1.033c-2.967,0-4.1,1.774-4.1,3.259,0,2.031,1.323,3.031,4.324,4.193,3.677,1.419,5.548,3.193,5.548,6.387,0,3.355-2.484,6.258-7.613,6.258a11.244,11.244,0,0,1-5.549-1.387Z" transform="translate(-97.81 -11.952)" fill="#221f1f"/>
      <path id="Path_43" data-name="Path 43" d="M234.724,26.264v9.1h10.516v-9.1h2.839V48.005h-2.839V37.812H234.724V48.005h-2.807V26.264Z" transform="translate(-112.639 -12.288)" fill="#221f1f"/>
      <path id="Path_44" data-name="Path 44" d="M287.163,36.573c0,7.483-4.549,11.451-10.1,11.451-5.742,0-9.774-4.451-9.774-11.031,0-6.9,4.29-11.419,10.1-11.419,5.936,0,9.774,4.548,9.774,11m-16.871.355c0,4.644,2.516,8.805,6.936,8.805,4.451,0,6.968-4.1,6.968-9.031,0-4.323-2.259-8.839-6.936-8.839-4.645,0-6.968,4.29-6.968,9.064" transform="translate(-129.87 -11.952)" fill="#221f1f"/>
      <path id="Path_45" data-name="Path 45" d="M310.647,48.007V26.265h3.065l6.968,11a61.586,61.586,0,0,1,3.9,7.065l.065-.032c-.258-2.9-.323-5.549-.323-8.936v-9.1h2.645V48.007H324.13l-6.9-11.033a68.91,68.91,0,0,1-4.065-7.258l-.1.033c.162,2.742.227,5.355.227,8.968v9.291Z" transform="translate(-150.986 -12.289)" fill="#221f1f"/>
      <path id="Path_46" data-name="Path 46" d="M360.172,37.813h-8.452v7.839h9.42v2.355H348.914V26.265h11.742v2.354h-8.935V35.49h8.452Z" transform="translate(-169.625 -12.289)" fill="#221f1f"/>
    </g>
    <g id="Group_12" data-name="Group 12" transform="translate(66.288 38.384)">
      <path id="Path_47" data-name="Path 47" d="M136.931,91.033a6.262,6.262,0,0,1-2.7.593c-2.642,0-4.4-1.933-4.4-4.69a4.611,4.611,0,0,1,4.729-4.9,4.7,4.7,0,0,1,2.412.574l-.326.747a4.123,4.123,0,0,0-2.163-.536c-2.47,0-3.733,1.876-3.733,4.039,0,2.412,1.513,3.982,3.637,3.982a5.1,5.1,0,0,0,2.3-.536Z" transform="translate(-129.828 -78.82)"/>
      <path id="Path_48" data-name="Path 48" d="M147.856,85c0-.919-.019-1.857-.077-2.756h.843l.038,1.857h.058a2.83,2.83,0,0,1,2.6-2.067,2.381,2.381,0,0,1,.383.038v.862a3.135,3.135,0,0,0-.441-.019c-1.263,0-2.163,1.091-2.412,2.565a4.272,4.272,0,0,0-.077.881v5.073h-.919Z" transform="translate(-138.571 -78.82)"/>
      <path id="Path_49" data-name="Path 49" d="M157.973,86.745c0,2.929,1.608,4.1,3.5,4.1a5.334,5.334,0,0,0,2.546-.517l.23.708a6.056,6.056,0,0,1-2.891.593c-2.642,0-4.288-1.914-4.288-4.614,0-3.063,1.761-4.977,4.135-4.977,3.006,0,3.58,2.833,3.58,4.154a2.348,2.348,0,0,1-.038.555Zm5.858-.727c.019-1.283-.517-3.217-2.738-3.217-2.03,0-2.891,1.8-3.063,3.217Z" transform="translate(-143.098 -78.82)"/>
      <path id="Path_50" data-name="Path 50" d="M181.626,89.253a13.781,13.781,0,0,0,.134,2.183h-.842l-.134-1.321h-.038a3.512,3.512,0,0,1-2.948,1.531,2.5,2.5,0,0,1-2.7-2.526c0-2.126,1.857-3.408,5.609-3.37V85.5c0-.9-.172-2.719-2.355-2.7a4.013,4.013,0,0,0-2.316.689l-.287-.67a5.077,5.077,0,0,1,2.7-.785c2.661,0,3.178,1.991,3.178,3.618Zm-.919-2.738c-2.01-.057-4.652.249-4.652,2.451a1.757,1.757,0,0,0,1.838,1.914,2.748,2.748,0,0,0,2.718-1.838,1.535,1.535,0,0,0,.1-.556Z" transform="translate(-151.878 -78.82)"/>
      <path id="Path_51" data-name="Path 51" d="M193.727,78.49v2.029h2.623v.747h-2.623v5.973c0,1.167.364,1.895,1.34,1.895A3.4,3.4,0,0,0,196.12,89l.115.689a3.636,3.636,0,0,1-1.283.21,1.951,1.951,0,0,1-1.57-.631,3.353,3.353,0,0,1-.575-2.2v-5.8h-1.55v-.747h1.55V78.835Z" transform="translate(-159.749 -77.093)"/>
      <path id="Path_52" data-name="Path 52" d="M205.289,77.355a.738.738,0,0,1-.708-.785.785.785,0,0,1,.746-.8.758.758,0,0,1,.728.8.745.745,0,0,1-.747.785Zm-.421,11.027V79.192h.919v9.189Z" transform="translate(-166.238 -75.766)"/>
      <path id="Path_53" data-name="Path 53" d="M211.454,82.446l2.144,5.7c.364.9.651,1.665.9,2.451h.038c.249-.766.593-1.57.938-2.451l2.183-5.7h.957l-3.733,9.189h-.8l-3.6-9.189Z" transform="translate(-169.11 -79.02)"/>
      <path id="Path_54" data-name="Path 54" d="M228.956,86.745c0,2.929,1.608,4.1,3.5,4.1a5.334,5.334,0,0,0,2.546-.517l.23.708a6.058,6.058,0,0,1-2.891.593c-2.642,0-4.288-1.914-4.288-4.614,0-3.063,1.761-4.977,4.135-4.977,3.006,0,3.58,2.833,3.58,4.154a2.378,2.378,0,0,1-.038.555Zm5.858-.727c.019-1.283-.517-3.217-2.737-3.217-2.029,0-2.891,1.8-3.063,3.217Z" transform="translate(-177.672 -78.82)"/>
      <path id="Path_55" data-name="Path 55" d="M246.594,90.23a4.065,4.065,0,0,0,2.068.631c1.455,0,2.144-.785,2.144-1.741,0-1.015-.612-1.551-1.933-2.087-1.512-.574-2.335-1.4-2.335-2.508a2.57,2.57,0,0,1,2.833-2.489,3.6,3.6,0,0,1,2.029.574l-.345.747a3.094,3.094,0,0,0-1.838-.556,1.605,1.605,0,0,0-1.78,1.59c0,.957.651,1.359,1.9,1.876,1.494.593,2.374,1.34,2.374,2.738,0,1.57-1.225,2.623-3.1,2.623A4.511,4.511,0,0,1,246.269,91Z" transform="translate(-186.543 -78.82)"/>
    </g>
  </g>
</svg>
