<svg xmlns="http://www.w3.org/2000/svg" width="249.557" height="86.667" viewBox="0 0 249.557 86.667">
  <g id="Layer_2" data-name="Layer 2" transform="translate(-0.003 -0.092)" style="isolation: isolate">
    <g id="Layer_1" data-name="Layer 1" transform="translate(0.003 0.092)">
      <path id="Path_1" data-name="Path 1" d="M246.072,33.724H121.235l-4.085-4.889H90.123l-.543,3.488H115.52l3.613,4.308-.092.57H246.072l-4.889,7.388h.033l-1.63,10.039-6.7,5.764H90.231l3.107-19.134-5-7.258h0c-1.027-1.489-1.559-2.564-2.537-4.178l.228-1.358.1-.717h0l-.641.223.174-.081.467-.141h.049a8.975,8.975,0,0,0-1.255-6.275,7.6,7.6,0,0,0-.6-.842,8.991,8.991,0,0,0-2.173-1.967l-.424-.266-.951-.608-1.038-.663L79.2,16.8l-1.13-.723-.255-.163L68.43,9.935l-6.3-4.026L59.76,4.394l-4.5-2.879a8.986,8.986,0,0,0-9.051-.38L30.934,9.12l-3.776,1.988-1.825.962-8.926,4.7-.1.054-.31.163-1.662.875-.755.4c-.2.1-.391.217-.581.331-.288.185-.543.375-.831.581a9.236,9.236,0,0,0-.728.646c-.092.087-.185.185-.272.277l-.147.163a8.747,8.747,0,0,0-1.657,2.716,8.931,8.931,0,0,0-.473,1.749l-.489,2.9-.5,2.89H9.856l-.049.049a1.418,1.418,0,0,1-.467.277,2.809,2.809,0,0,1-.94.168H7.856L6.7,37.761l-.087.543a1.63,1.63,0,0,0,.027.706c.777.06.7.12.054.179a1.738,1.738,0,0,0,1.347,1.119,1.972,1.972,0,0,0,.353,0,1.809,1.809,0,0,0,.962-.331,1.749,1.749,0,0,0,.467-.511,1.706,1.706,0,0,0,.244-.587l.9-5.389-.3.239a8.085,8.085,0,0,0-.826.25,4.278,4.278,0,0,0-.4.174c.136-.206.272-.418.4-.63.228-.369.445-.744.636-1.119a6.628,6.628,0,0,0,.543-.484l.147-.147.1-.1.168-.983a1.087,1.087,0,0,1-.266.049h-.445l-.076.038.152-.255h.369a.848.848,0,0,1,.272.071h0l.364-2.173h0l.364-2.173.163-.967A5.59,5.59,0,0,1,13,23.408a5.471,5.471,0,0,1,1.336-1.537,5.943,5.943,0,0,1,.869-.543L16,20.909l.31-.163.1-.054,8.92-4.677,1.825-.962,3.776-1.972,16.89-8.91a5.471,5.471,0,0,1,5.547.217l6.383,4.08,2.369,1.516,6.3,4.031,9.382,5.976h.038c.071-.071.147-.141.217-.217s.283-.288.418-.44a3.928,3.928,0,0,0,0,1.016v.038l.723.462.543.331.543.342a5.4,5.4,0,0,1,.505.364,5.611,5.611,0,0,1,.951.983,5.5,5.5,0,0,1,1.016,4.216l-.13.755h0l-.418,2.5c.364-.19.723-.424,1.087-.6,0,0-.3.228-.3.342l-.847.478-.065.386,1.244,1.815V32.8L89.7,42.031,86.13,63.9H234.174l8.649-7.437,1.722-10.621,8.024-12.115ZM8.476,33.3l-.076.033c-.2.092-.12.033,0-.06l.114-.081a.076.076,0,0,1-.038.109Zm1.353,5.378.234-.147a1.515,1.515,0,0,1-.234.272,3.526,3.526,0,0,1-.467.386c-.63.44-1.206.608,0-.2C9.492,38.9,9.649,38.793,9.829,38.679ZM59.754,4.964l-.413.141c.033-.1.114-.158.152-.261l.261-.033c.63-.076.456-.005,0,.152Zm2.369,2.58-.206.06a.933.933,0,0,0,.038-.114h.168a.511.511,0,0,1,.206,0Zm18.623,12.9h0c.125.005.081,0,0,0Z" transform="translate(-3.012 -0.092)" fill="#fff"/>
      <path id="Path_2" data-name="Path 2" d="M383.442,71.631h-9.013l-2,12.316H384.9l.092-.592H385l.7-4.346h-7.524l.071-.456.326-2h9.849l.8-4.927H386.05a1.93,1.93,0,0,1,.2.244.869.869,0,0,1-.543-.244h-.815l.847.326a2.629,2.629,0,0,0-.543.266.543.543,0,0,1,.261.081l-.652.027-1.152.054a.76.76,0,0,0,.19.163,2.216,2.216,0,0,0-.375-.049,4.689,4.689,0,0,0-1.418.2l-.44.114.44.407a5.216,5.216,0,0,0,1.418,1,9.132,9.132,0,0,1,1.336.8l.092.065-.092.065a1.809,1.809,0,0,0-.168.179l-1.168-.733-1.418-.853-1.3-.771-.815.168c.614-.255,1.358-.641,2.119-.978A10.944,10.944,0,0,1,383.442,71.631Zm-7.725,3.379a1.351,1.351,0,0,0-.217-.185l-.212-.163q0-.081.065-.081a1.236,1.236,0,0,0,.147.147.875.875,0,0,1,.217.2Zm.065-.429h-.065s-.033-.033-.065-.071h.13ZM384.8,79.47l.587-.071q-.331.065-.587.1c-.685.1-.88.071,0-.033Zm-1.336.206h.12c0,.049,0,.081-.065.081h-.054c-.19-.038-.114-.054,0-.087Zm-3.042,1.489a.679.679,0,0,0-.364.179h-.152c-.869.087-.494,0,0-.1Zm-2.173-1.347a3.738,3.738,0,0,1,1.336-.25,2.287,2.287,0,0,1-1.336.266Z" transform="translate(-170.104 -32.762)" fill="#f70"/>
      <path id="Path_3" data-name="Path 3" d="M374.49,102.46h17.227l-4.123-4.922H375.946l.25-1.548h-4.922l-1.054,6.47h4.27Zm6.405-4.248a.625.625,0,0,1,.141,0,1.315,1.315,0,0,0,.31.065l-.13.168a.543.543,0,0,0-.179-.076,1.5,1.5,0,0,1-.315-.092C380.786,98.293,380.846,98.212,380.9,98.212Zm-3.678-.179.712-.087c0,.087-.065.168-.065.266h-.646C376.31,98.2,376.234,98.168,377.217,98.033Zm-3-1.9.125-.033a.076.076,0,0,1-.065.087h-.06c-.2-.005-.125-.027,0-.054Z" transform="translate(-169.095 -43.892)" fill="#f70"/>
      <path id="Path_4" data-name="Path 4" d="M317.7,94.31h-3.45L313.4,95.6l-2.407,3.629h8.616l.831,2.461h6.155L324.1,94.31h-6.4Z" transform="translate(-142.042 -43.125)" fill="#f70"/>
      <path id="Path_5" data-name="Path 5" d="M308.834,74.077l-2.863,4.314-3.8,5.78-.826,5.079c.978.348.663.315,0,.163L301,91.32h2.58l2.407-3.634,2.863-4.319,2.885-4.346.25.739.9,2.657.092.272.033.092.027.082h0l.049.147h6.155L315.391,71.6h-4.65l.581.505a5.1,5.1,0,0,0-1.086-.2Zm-1.5,7.665a7.829,7.829,0,0,0-1.179.087l.065.081-.25.043-1.6.3a3.035,3.035,0,0,1-.2-.266c.505.071,1.211-.462,1.793-.913.212-.163.407-.315.57-.424l1.222.924a3.173,3.173,0,0,1-.543.082.19.19,0,0,1,.114.081Zm1.5-5.395c-.315,0-.158-.076,0-.076s.179,0,.179.081Z" transform="translate(-137.479 -32.753)" fill="#f70"/>
      <path id="Path_6" data-name="Path 6" d="M353.891,71.64h-6.155l-.614.929L346.106,74.1l-.543-1.673-.266-.788h-6.182l-.543.445-.206.179-.38.326-.543.484-1.2,1.027-.543,3.466-.592,3.64.386,1.141h.516l.174-.25a2.646,2.646,0,0,0,1.277.206l.206-.038.125.163h-.06a.951.951,0,0,0-.272-.065,4.417,4.417,0,0,0-1.76.326h-.076l.071.212h0c.543.174,1.407.733.06.2l1.7,5.036L338,89.79l.38,1.119.033.109.174-1.087,2.173-13.419h2.461L341.2,88.937l-.065.413h.065c1.087.413,1.173.543,0,.168h-.092l-.288,1.771h4.927l.321-2h-.054c-.06-.076-.136-.092-.19-.163.065,0,.125-.1.19-.1a.467.467,0,0,0,.082.092l1.005-6.193,1.043-6.432h2.466l-1.2,7.388h4.922l.109-.668,1.494-9.187-1.494-1.776Zm-16.439,4.3h-.462l.462-.043.462-.038v.081Zm.592,2.276h-.13l.065-.082h.065Zm0-.25h-.065l.033-.174.033-.174Zm.543-3.8h0Zm2.624,1.9h-.147c-.092-.114-.158-.282-.261-.413l.407.168.407.163Zm4.319,4.84a2.375,2.375,0,0,1-.815-.429c.375.12.641.217.815.288.456.206.315.25.011.158Zm0-2.608c-.614.125-1.135,0,0-.168.179-.033.4-.065.668-.1a1.744,1.744,0,0,1-.657.283Zm1.592-3.205a7.7,7.7,0,0,0-1.087-.266,1.717,1.717,0,0,1,1.087-.217c.369,0,.744.109,1.087.136C347.594,75.1,347.361,75.144,347.122,75.1Zm4.808,2.809c-1.168.223-1.63.228,0,0h0Zm1.228-3.26a8.035,8.035,0,0,1-.8-.3.913.913,0,0,1,.8-.109,5.776,5.776,0,0,1,.712.315l.1.043-.1.038a1.179,1.179,0,0,1-.712.005Zm1.3.315a3.664,3.664,0,0,0-.592-.109h-.1l.1-.038.288-.125.3.147c1.135.527.69.293,0,.12Z" transform="translate(-153.059 -32.771)" fill="#f70"/>
      <path id="Path_7" data-name="Path 7" d="M359.26,102.479h4.927v-.027l.712-4.346.337-2.075h-4.927l-.543,3.433.147-.038a.719.719,0,0,1-.158.1Zm4.927-5.693.679-.087c-.12.087-.244.1-.364.179h-.315c-1.1.1-.7.011,0-.092Zm-1.228,4.161h.1l-.043.081h-.06C362.8,101,362.846,100.979,362.96,100.947Z" transform="translate(-164.089 -43.911)" fill="#f70"/>
      <path id="Path_8" data-name="Path 8" d="M336.209,91.5l-.179-.011-.179-.011.087.266.092-.087Z" transform="translate(-153.397 -41.833)" fill="#f70"/>
      <path id="Path_9" data-name="Path 9" d="M207.41,84.831l.071.011.06.011.005-.033-.065.005Z" transform="translate(-94.733 -38.791)" fill="#f70"/>
      <path id="Path_10" data-name="Path 10" d="M186.013,63.547l-.592-.712-.168-.2h-24.2l4.232,6.171h15.9l-.543,3.178.5.1-.543.255-.972,5.976c.424.331.359.359-.027.168l-.424,2.619h-9.235l1.793-11.034h-6.112l-.712,4.379a7.649,7.649,0,0,0,.94-.321v.429h-.956l-2.059,12.691h18.433l.168-.147.826-.712.473-.4,2.1-1.809.587-3.6.223-1.385-.223-.087-.407-.168v-.081l.109-.081.3.19.234.152.353-2.173.3-1.836v-.136h0a2.318,2.318,0,0,1-.3-.043,2.293,2.293,0,0,0-.587.033c-.353.065-.717.2-1.288.342a3.879,3.879,0,0,0-.989-.163,16.56,16.56,0,0,0,1.309-1.087,6.858,6.858,0,0,0,.967-.38q.293-.136.587-.293l.168-.087h.13a.779.779,0,0,1,.288.033l1.233-7.606-1.521-1.809Zm-20.03,18.471-.625.043a.9.9,0,0,1,.625-.255,5.662,5.662,0,0,1,.619.174Zm2.961-6.573-.174-.049-.293-.081h.038l.255.076.174.054Zm.668,6.584-.212-.049h.212c.337.081.206.071-.005.027ZM182.264,68.17h.136c-.043,0-.049.081-.109.081h0c-.25-.054-.152-.081-.033-.1Zm-.826,11.284.657-.1a1.727,1.727,0,0,1-.657.266c-.608.109-1.114.005-.005-.19Zm1.3,3.841-.473-.136-.826-.244c-.983-.3-1.977-.619-2.135-.674a2.173,2.173,0,0,0,.543-.342c.505.25,1.043.44,1.575.646.277.109.543.223.826.348h0l.445.179c1.32.511.929.451.06.2Zm0-9.388h.114q0,.082-.065.081h-.033c-.206-.049-.136-.071,0-.1Zm.114-2.483.038-.081a.272.272,0,0,1-.152,0,1.587,1.587,0,0,1-.473-.2,8.708,8.708,0,0,1-.826-.543l-.2-.13c.065-.065.136-.12.2-.179l.293-.25c.179.136.359.261.543.4a4.833,4.833,0,0,1,.456.38c-.44.456-.228.386,0,.234a1.7,1.7,0,0,0,.217-.152,13.2,13.2,0,0,0,1.744,1.168c-.657.288-1.266-.321-1.847-.668Zm2.575,1.4-.234-.125h-.065l.19-.168.109.087c.413.342.359.375-.005.185Zm.646.3h-.06c-.163,0-.114,0,0-.054l.1-.027s-.005.06-.049.06Z" transform="translate(-73.559 -28.66)" fill="#f70"/>
      <path id="Path_11" data-name="Path 11" d="M252.6,71.64H238.507l-1.049,6.47h4.922v-.06l.239-1.483h7.388l-.125.761c.321.109.288.136,0,.076l-.065.418-.2,1.206h-9.877a.943.943,0,0,0-.092.114c0-.038,0-.081-.043-.081v-.033h-2.3l-1.087,6.813,2.265,2.716h.13a.581.581,0,0,1-.087.076l.407.489.364.435,1.527,1.814H250.1l1.249-1.087,1.266-1.087.348-.3.8-4.922-.82-2.488,1.63-2.461.8-4.927-2.059-2.461Zm-14,2.95a.254.254,0,0,0-.043-.168h.364a1.793,1.793,0,0,0,.364-.071l-.364.13Zm.761,2.619-.065-.081-.19-.261a.581.581,0,0,1,.19.125,1.541,1.541,0,0,1,.2.217Zm6.286-2.369a6.589,6.589,0,0,1-.706-.283l-.12-.049.12-.076h0c.342.158.576.282.7.353s.125.092,0,.054Zm4.183.114h-.109a.147.147,0,0,1,.109-.033c.087-.011.168.054-.011.033Zm-9.714,14.065c-.266-.109-.543-.228-.82-.364-.125-.06-.244-.125-.364-.19l-.065-.038.065-.027a.8.8,0,0,1,.364.033,10.772,10.772,0,0,1,1.054.424c-.071,0-.19.12-.244.163Zm8.35-7.9a.7.7,0,0,1,.337,0c.424.06.777.348,0,.185l-.337-.087-.12-.033a.4.4,0,0,1,.109-.065Zm-3.526-1.4.163-.06h0a1,1,0,0,1,.277.076l.266.12c.337.163.228.158,0,.1s-.543-.152-.706-.206h-.054Zm1.364.445a.891.891,0,0,1-.657.168,4.446,4.446,0,0,1-.652-.25c.255,0,.456-.043.652-.049a1.32,1.32,0,0,1,.647.13Zm-3.9.771,2.537.234h0q-.53.4-1.043.831c-.505-.321-1-.657-1.494-1.005l-.12-.081Zm-1.054,2.059.375-.043h1.054c-.071.1-.179.152-.255.25l-.12-.038-.679-.212-.375.06h-.375Zm1.054,5.145-.31.125c.076-.087.158-.168.234-.25h.386Zm6.063-.315h-.12c-.25-.092-.065-.1.12-.092h.244Zm.337-3.7-.337,2.081-.033.212h-7.388l.3-1.885.1-.576h7.383Zm1.027-.511c-.1-.043-.283-.12-.543-.25h-.494l-.31-.049c-.581-.092-.386-.114,0-.12h.657l.668.369c.147.087.185.125.011.049Zm1.483-6.546-.076-.038h.076C251.431,77.132,251.448,77.122,251.312,77.067Zm1.266,6.074h-.12v-.081l.12.043c.168.027.2.065.022.038Z" transform="translate(-107.892 -32.771)" fill="#f70"/>
      <path id="Path_12" data-name="Path 12" d="M405.89,72.27,405.6,72.2l-1.874,1.63-.331.288-1.2,7.388,1.527,1.809.543.636h14.771l.8-4.927H407.519l.4-2.461h12.31l.12-.179L423.5,71.64H406.27l-.19.163,1.255.163-.858.429ZM403.8,77.127h-.082c-.212,0-.141,0,0-.065l.141-.033Zm9.838,4.8c-.049.081-.109.087-.168.179H413c-.809,0-.685-.065,0-.168l.641-.092Zm-.168-.413-.473.152-.255.087c-.076.054-.147.12-.217.174a.89.89,0,0,0,.19-.163h.027l.255-.2.342-.3c.071.076.087.179.158.255ZM413,80.865l.147-.027c0,.081.065.087.065.168H413c-.913.1-1.364.092.016-.141Zm7.35-7.915c.972.375.685.391,0,.087-.185-.081-.4-.185-.63-.31Zm-2.928,3.423.065.027c.2.087.152.071,0,0l-.13-.043Zm-1.353-1.95h.049c.179.065.109.049,0,0L416,74.389Zm-.543-2.716h.206c.3.065.407.163,0,.049l-.272-.076Zm-3.846,0h.027c.125.076.114.06,0,0h-.027Zm-2.037.081.326.1c.755.255.636.272,0,.114-.147-.033-.32-.081-.543-.136Zm-.69,3.89.228.092c.706.293.516.261,0,.163l-.462-.087c.06-.071.168-.071.234-.152Zm-3.059-.685c-.25-.071-.5-.223-.8-.321.429-.174.619-.223.8-.179a6.578,6.578,0,0,1,.81.342A.864.864,0,0,1,405.89,74.992Z" transform="translate(-183.697 -32.771)" fill="#f70"/>
      <path id="Path_13" data-name="Path 13" d="M410.149,102.46h3.743l.092-.076,2.716-2.336.4-.348,1.369-1.179,1.146-.983.25-1.548h-4.927l-.25,1.548H404.32l.391.473,2.173,2.586,1.565,1.863Zm.331-1.478.456.152.543.185c1.086.38,1.554.6,0,.2l-.543-.147-.456-.12Z" transform="translate(-184.67 -43.892)" fill="#f70"/>
      <path id="Path_14" data-name="Path 14" d="M207.811,102.46h17.977l-1.988-2.369c-.706.1-1.527-.125-2.466-.033a.837.837,0,0,1,.174.163h-1.228a12.882,12.882,0,0,0,1.548-1.25,16.367,16.367,0,0,0,1.6.668l-1.738-2.1H211.571l.255-1.548H206.9l-1.048,6.47Zm12.533-3.26a3.705,3.705,0,0,0-.75.842l-.543.179-1.255.413h0a6.574,6.574,0,0,0-.043-.924h.049q.625-.1,1.255-.228c.424-.076.858-.168,1.288-.266Zm-2.553.185c.185.185.092.152,0,.065a.359.359,0,0,1-.109-.168Zm-1.5,1.353.081-.1.261.429-.342.043-.348.038Zm-.413.407a.153.153,0,0,1,.065,0c.043,0,.087.065.13.065h-.261Z" transform="translate(-94.021 -43.892)" fill="#f70"/>
      <path id="Path_15" data-name="Path 15" d="M216.018,71.64h-5.976l-.924,5.862c.223-.038.543-.1.972-.206,0,.174.337.163.429.163-1.146.57-.484.777-1.57,1.087l-.114.706-.766,4.7h14.777l.8-4.927h-9.86l.4-2.461h9.849l.8-4.927h-8.247l-1.679.592.435-.429Zm-7.193,11.751c-.657.12-.842.114,0,0l.543-.087Zm2.466-7.807a.95.95,0,0,0,.152-.071c0,.158.065.277.065.429-.076-.049-.147-.1-.217-.136a1.315,1.315,0,0,0-.212-.114A.711.711,0,0,1,211.292,75.584Zm-1.527,4.069c.424-.543,1.087-.081,1.527.206l.087.054-.087.038a2.1,2.1,0,0,1-1.537-.3Zm1.527.543H211.2l.087-.038.277-.125c.071.081.2.076.261.163h-.13a.364.364,0,0,1,.174.081Zm1.206-4.743-.217-.065c-.158-.043-.228-.038,0,.087l.109.06-.109.065a3.108,3.108,0,0,1-.407.2l.065-.511.342.038.407.043Zm-.109-1.847h-.109c-1.005.1-.543-.043,0-.179l.407-.1a.928.928,0,0,0-.31.255Zm4.922,5.932a2.031,2.031,0,0,0,.451-.114l.19.168h-.858a.907.907,0,0,1,.206-.076Zm-2.716,1.733.1.049c.321.158.217.163,0,.109l-.206-.06Zm-.168-6.992.049.082.054.081s-.033-.027-.054-.049a.06.06,0,0,0-.049-.033Zm.266,1.983-.217-.071-.543-.228.038-.081h-.858c.272-.228.543-.12.853,0h0l.2.081.31.158a2.275,2.275,0,0,1,.217.125s.022,0,0-.005Z" transform="translate(-95.035 -32.771)" fill="#f70"/>
      <path id="Path_16" data-name="Path 16" d="M268.48,93.8l2,2.4.054.065h14.777l.337-2.086-.44-.109-.163-.043a.823.823,0,0,0,.163,0c.158,0,.315-.06.478-.071l1.63-9.991h-7.388L282,86.419l-.8,4.927h-7.388l.456-2.83-.342-.3.239-.168.158.13.771-4.737a6.96,6.96,0,0,1-.972-.456c.478.168.793.293.983.38l.158-.951H272c1.2.511.994.5-.342.076l-.228-.076h-1.087Zm15.668-7.486a7.637,7.637,0,0,1,1.087.076l1.146.13a3.541,3.541,0,0,0,.043.413c-.44-.087-.848-.174-1.19-.25-.5-.109-.875-.206-1.087-.272s-.174-.092,0-.1Zm-13.712-1.63h.049c.163.071.12.049,0,0l-.114-.033Z" transform="translate(-122.626 -37.69)" fill="#f70"/>
      <path id="Path_17" data-name="Path 17" d="M273.316,76.567h13.62l3.26-4.927H275.419l-.766.657-1.336,1.168-.755.646-.391,2.434v.033h1.152Zm12.43-.972.087.054c.1.06.141.1,0,.065h-.087Zm-1.119-3.363h.033l.163.136-.163-.043-.163-.038c.076-.038.136-.065.13-.054Zm-6.3,2.95.147.065c.543.234.375.223,0,.158l-.337-.06C278.2,75.274,278.276,75.258,278.331,75.182Zm-3.971-.348.3.12c.592.244,1.146.543,0,.179l-.109-.033-.543-.163A.543.543,0,0,1,274.359,74.834Zm-1.418,1.271c.141.06.272.109.375.158.581.244.6.3,0,.043l-.44-.2Z" transform="translate(-124.312 -32.771)" fill="#f70"/>
      <path id="Path_18" data-name="Path 18" d="M78.687,82.291l-.163-.033a1.668,1.668,0,0,0-.788.049,1.738,1.738,0,0,0-1.038.842,1.858,1.858,0,0,0-.185.543l-.331,1.983-1.13,6.753L74.8,93.955l-.027.152v.038l-.815,4.889a5.433,5.433,0,0,1-2.874,3.977l-5.661,2.977-6.307,3.281-2.369,1.244-18.292,9.621a5.471,5.471,0,0,1-5.547-.234l-4.982-3.184L24.149,114.3l-1.825-1.168-8.149-5.188c-.206.071-.435.1-.625.19l.071-.033a3.757,3.757,0,0,1,.5-.19l-.69-.44h-.049l.06-.027-.06-.038-.1-.071-.31-.2-1.662-1.087L9.97,105.2l-.831-.543-.728-.467-.272-.174-.147-.1-1.19-.761-.467-.3-.315-.2a5.723,5.723,0,0,1-.646-.484,5.5,5.5,0,0,1-1.825-5.085l1.8-10.528h0l.043-.277.342-2.01A1.746,1.746,0,1,0,2.288,83.7L.544,94.085h0l-.418,2.5a9.024,9.024,0,0,0,4.031,9.083l.983.625.2-.092H5.39c.413-.114.924-.228.092.049H5.39a.543.543,0,0,0-.25.071l.25.163.962.614.467.3,1.059.679.13-.076.147-.081.168-.092a.19.19,0,0,0-.136.163H8.156l-.147.071-.076.033.076.049.147.092.272.174.728.467.831.543,1.336.853,1.662,1.087.31.2.1.065,8.926,5.7,1.825,1.168,3.776,2.412,3.1,1.95a8.969,8.969,0,0,0,9.051.38l16.667-8.768,2.369-1.25,6.3-3.319,7.285-3.835a9.192,9.192,0,0,0,2.1-1.516c.087-.081.174-.168.255-.255a8.936,8.936,0,0,0,1.13-1.467,8.73,8.73,0,0,0,.543-.972,8.855,8.855,0,0,0,.69-2.276l.348-2.054.462-2.765c-.163-.043-.342-.092-.462-.136s-.239-.12,0-.12a4.507,4.507,0,0,1,.451,0h.033L78.7,91.82l.886-5.281h0l.386-2.3A1.755,1.755,0,0,0,78.687,82.291ZM6.977,106.4a.576.576,0,0,1-.136.049,2.8,2.8,0,0,0-.38.092,3.217,3.217,0,0,0,.38-.125c.288-.092.587-.168.114-.016Zm.989-1.9h0Zm.244,2.048-.06.005.065-.027Zm1.8-.4.337-.185h.038c-.049,0,0,.054,0,.1l-.38.174c-.478.2-.565.217-.016-.087Zm-1.559-.331-.1.043a.592.592,0,0,1,0-.1.283.283,0,0,0,.1.033.114.114,0,0,0,.071,0h.033Zm.608.951a.266.266,0,0,1,.12.033c.038,0,.038.038,0,.054H9.063c.027-.011-.005-.049-.027-.087Zm.12.451h0c.266-.217.543-.418.831-.619a8.291,8.291,0,0,0,.793-.636l.315.06-1.087.685Zm2.173,1.358h.076l.375-.174c-.109.049-.234.1-.266.228l-.185.033c-.484.06-.761.168-.027-.087Zm0,.587-.369.206a1.277,1.277,0,0,0,.331-.261l-.136.065.136-.065h.071a.19.19,0,0,1,.1-.152l.619-.185Zm.913-.7c.071-.033.092-.147.163-.179l.587-.168.31-.087.1-.033c.467-.125.445-.1,0,.054l-.1.038-.31.109ZM13.4,110.9h0l-.1.076c-.4.288-.223.087,0-.125l.1-.1.13-.12C13.452,110.676,13.42,110.834,13.4,110.9Zm8.92,5.166-.364.543c-.027.081-.06.158-.087.239a.592.592,0,0,1,0-.1l.092-.141c.12-.321.234-.641.364-.956q.1-.277.228-.543a1.255,1.255,0,0,0,.223.3Zm1.869,1.038h.038Zm3.873.054-.141.1c-.386.266-.223.081,0-.136l.234-.212c0,.1-.071.158-.092.25ZM74.787,95.2l-.13-.282.071-.033.06.136.13.288-.065.033Zm.255.543H74.9v-.1l.141.06.1.033.043.081c-.016-.06-.071-.071-.136-.076Zm1.141-4.4h-.125s0-.1.033-.12l.109.033C76.368,91.282,76.368,91.341,76.183,91.341Zm.543,5.84h-.212l.212-.1h.06c.25.049.1.065-.087.071ZM78.714,86.86h-.679l.38-.174.3.033c1.043.081.69.114-.027.114Z" transform="translate(-0.003 -37.609)" fill="#fff"/>
      <path id="Path_19" data-name="Path 19" d="M88.506,87.455l.016-.005-.016.005-.016.005h0Z" transform="translate(-40.418 -39.992)" fill="#f70"/>
      <path id="Path_20" data-name="Path 20" d="M10.748,64.9a3.135,3.135,0,0,0,1.429,3.222l.663.424h0c.815.239,1.027.3.429.277L15.7,70.372l2.809,1.793,1.559,1,1.087.7H21.2l.158-.071.445-.282.065-.06.1-.043-.163.1a5.544,5.544,0,0,1-.619.375h0l.924.592.929.592.435.277.282.179.2.13.5.321.445.288,1.63,1.043.831.543,4.5,2.879,2.358,1.489,1.548.989,1.336.853,1.461.913.505.321h0a3.075,3.075,0,0,0,.543.272l.228.087.31.081h.1a3.076,3.076,0,0,0,.543.049,4.047,4.047,0,0,0,.543-.049,2.373,2.373,0,0,0,.282-.065A3.694,3.694,0,0,0,42.3,85.4l.505-.266.706-.375.141-.076.353-.185.348-.185,1.125-.592.886-.462.679-.359.141-.076.478-.25.19-.1.543-.3.06-.033.2-.1.462-.239.087-.049.364-.19.261-.136.592-.31.239-.13.5-.261.25-.136.109-.054.125-.065.288-.152h.033l.2-.1H52.2l.174-.087.614-.326.543-.277.424-.223.543-.288.429-.228.174-.087.136-.071.543-.277.152-.081.114-.06.114-.06,5.606-2.95.608-.321.543-.288,1.054-.543.266-.141.543-.277,3.455-1.82,1.336-.706.293-.152.321-.168.174-.092.288-.152.706-.369.277-.147.456-.244h.065l.087-.049.3-.158h0l.071-.038h0l.348-.185.06-.033.152-.081.342-.179.337-.179.174-.087.57-.3.168-.087.109-.06H74.9a3.417,3.417,0,0,0,.364-.223,2.873,2.873,0,0,0,.321-.255,2.357,2.357,0,0,0,.282-.288,3.064,3.064,0,0,0,.679-1.445v-.092l.543-3.107.592-3.71.348-2.081.141-.853.717-4.27.31-1.858.1-.619.141-.837.31-1.853H79.2a1.331,1.331,0,0,1-.31,0c-.071,0-.076-.049,0-.087a1.473,1.473,0,0,1,.31-.114l.1-.027.141-.038a2.573,2.573,0,0,0,.375-.087l.19-1.157.359-2.13.223-1.326v-.141l.038-.234v-.038h0v-.174h-.038l-.223.13-.244.147a.151.151,0,0,1-.114-.038h0l.141-.065.217-.163.223-.168h0l.038-.033h0l.054-.038.038-.239.244-1.456h0v-.185l.06-.375-.337.152-.092.033h0l.092-.06.353-.2V38.6l-.071.027.071-.027.223-1.336h0l.94-5.612a3.14,3.14,0,0,0-1.429-3.222l-.109-.065-.092-.06h-.038l-.223-.141-.31-.2h-.049a4.723,4.723,0,0,0-.543.31l-.141.081-.1.06-.31.168-.109.049v-.3l.12-.06a2.433,2.433,0,0,0,.31-.2l.1-.071.141-.1.255-.19-.255-.163-.141-.087-.1-.065-.168-.109-.141.065h0v-.174l-.706-.451-.141-.092-.337-.293-.614-.391-.543-.342-.331-.212-.348-.223L75.564,25l-.321-.206-.391-.25-.109-.071V36.9l.043-.049s.033.076,0,.1h-.049v1.336l.109-.049-.1.043h0l-.168.076h0l.168-13.913-.168-.109L74,23.972l-.174-.109-.337-.217-.342-.217-.152-.1-.06-.038-.348-.223h0l-.071-.043h0l-.3-.2-.087-.054-.065-.038-.456-.293-.277-.179-.706-.451-.288-.185-.174-.109-.321-.206-.31-.185L68.2,20.278l-3.455-2.206L64.2,17.73l-.266-.174-1.054-.674-.543-.348-.608-.386-5.606-3.586L56,12.493l-.114-.071-.152-.1-.543-.337-.136-.081-.174-.114-.429-.277-.478-.3-.071-.043a3.119,3.119,0,0,0-.424-.217,3.911,3.911,0,0,0-.543-.174,3.444,3.444,0,0,0-.614-.076h-.4a2.45,2.45,0,0,0-.288.049l-.125.027-.109.033a2.276,2.276,0,0,0-.25.087,2.918,2.918,0,0,0-.353.158l-.147.076-.239.13-.592.31-.261.136-.364.19-.087.049-.462.244-.2.1-.06.038-.543.3-.19.1-.478.25-.141.076-.679.359-.886.467-1.125.592L44,14.65l-.353.185-.141.071-.706.375-1.179.619-.282.147-.543.272-.543.293-.1.049-.31.163-.228.125-.543.277-.543.277-1.423.75-1.336.7-1.543.837-2.358,1.244L27.36,23.4l-.831.44L24.9,24.7l-.445.239-.359.185H43.609l.353-.141.25-.1-.174.261H67.16l1.016,1.217,1.358,1.575.293.353.321.386.174.2.288.342.706.847.277.331.456.543L72.1,31l-.054.326-.456,2.809-.3,1.717L70.588,40.2l-.179,1.087.179-.081h.054l.065-.033h-.033l-.087.043-.185.092-.1.652-.174,1.048h0c.1.033.12.054,0,.054h0l-.277,1.69h0c.114.043.136.054,0,0v.337h0l.321-.076.174-.038c.147-.033.141,0,0,0l-.174.06-.321.109h0l-.12.755a1.548,1.548,0,0,0,.065-.168h.076l.321.071.174.038.288.065c.467.109.543.147,0,.125h-.94l-.179.8-.679,4.189c.788-.1.657-.043,0,.049l-.429,2.673h0l.1-.049c.228,0,1.228.445.147.136-.087-.038-.163-.049-.25-.087h0l-.027.06-.206,1.271L66.356,66.276l-1.63,1.4-.543.462-.266.228-1.054.907-.543.467-.608.543L59.538,72.17H24.405c0,.076-.065.141-.087.217L23.96,72.3l-.2-.049c-.1,0-.2-.038-.282-.043H23.4c0-.049,0-.092.033-.114h.831l.2-1.179.445-2.765.266-1.63-.266.038H24.84l.065-.033.109-.049h.163l1.364-8.393.831-5.1,2.222-13.7H32l-.038-.054q1.173-.761,2.26-1.57l.543-.386a4.221,4.221,0,0,0-.505,1.19l-.033.027-.929.8H41.35l-.049.293-.543,3.178-.543,3.4-.1.614-.31,1.912L39.573,50.1l-.543,3.26h0L38.742,55.1h.038l-.054.114L38.568,56.5l-.576,3.493a5.764,5.764,0,0,1,.543-.337.543.543,0,0,1,.038.081L38.03,60l-.913,5.188L36.9,66.482h.033l.185-.076c.19-.071.19-.054,0,0l-.217.071-.3,1.858.543-1.4.326-.88-.282.1.293-.125.657-1.755a7.461,7.461,0,0,1-.761-.054.255.255,0,0,0,.163-.179,6.064,6.064,0,0,1,.63.147l.4-1.087.543-1.391.049-.125h-.049a1.233,1.233,0,0,0-.424.272c.13-.2.272-.445.424-.641a1.086,1.086,0,0,1,.1-.114l.043.1H39.3l.3-.8H55.556l.174-1.087.152-.94L56,57.7l.114-.706.353-2.173-.244.114A1.174,1.174,0,0,1,56.5,54.6h0l-.391.179L56,54.829l-.114.054-.152.071-.2.092.1-.179.1-.049.152-.071L56,54.693l.114-.049.407-.19,2.537-15.613,2.662-.543.608-.125.543-.114,1.054-.217.266-.054.543-.109,3.455-.712.435-.087H37.427l-.31.141a8.485,8.485,0,0,0-.82.429.978.978,0,0,1,.272.049l-.788.386-.641.321a11.369,11.369,0,0,0,.641-.962c.076-.12.147-.239.217-.364H15.441l-1.6,9.545c2.673-.44,1.63-.136-.043.272ZM78.856,27.411h.049a.589.589,0,0,0,0,.1.049.049,0,0,1-.054,0,.679.679,0,0,0-.054-.049Zm-.7,18.27.065-.049Zm.1-1.586.375-.174.239-.071.31-.092.1-.033c.125-.033.109,0,0,0l-.1.038-.31.109Zm1.168,1.749-.141.049-.1.038h-.065l.065-.033.1-.049h.141c.657-.217.478-.217,0-.027Zm0-5.188h-.375l-.179.087-.239.109c.049,0,.033-.065.033-.12l-.071.033c.033,0,0-.1.027-.114h0a2.032,2.032,0,0,0,.239-.174l.31-.266.049-.038a2.256,2.256,0,0,1-.049.234.544.544,0,0,0,0,.092h0l.1-.043.065-.033-.065.033a.207.207,0,0,0-.049.049h.038l.141-.038c.543-.158.391-.092,0,.038h0c.88.092.625.125.022.13Zm0-.962-.141.043-.1.033h0l.1-.049a.543.543,0,0,0,.141-.1.494.494,0,0,0,.06-.087l.505-.12.359-.076c.168-.033.147,0,0,.049L80,39.509Zm-.244-.543ZM80,38.227h.06c0-.049.136-.353.049-.31h-.071a7.607,7.607,0,0,1,.31-.853h0c.087.081.136.217.223.3h0l-.223.359-.288.467h0l-.06.092-.293.484h-.038c.054-.217.163-.4.217-.614Zm-.049-.141.049.038c.049.038.081.071,0,.065h-.043c0-.054-.005-.087-.005-.12ZM80.584,39.536Zm.054,0H80.6l-.223.141-.185.12h-.038a.962.962,0,0,0,.223-.168.6.6,0,0,1,.152-.109l.065-.033h.065ZM80.589,39.536ZM80.589,39.536ZM80.589,39.536ZM80.589,39.536Zm.033,0Zm-.766-6.351.136.092.359.244.223.152h.038l.092.06.63.435H81.3a1.63,1.63,0,0,0-.592.06l-.092.027h-.038l-.223.087-.359.158a4.676,4.676,0,0,0-.543.315H79.4l.049-.19v-.038a6.341,6.341,0,0,0,.217-.614h-.033A5.73,5.73,0,0,0,79.856,33.186Zm-.429-4.009h0l.071.071-.071.033c-.076.054-.114.054.005-.1Zm-.114,6.617.141-.12c.114-.092.283-.212.494-.364l.038.081c-.033,0,0,.168,0,.2-.244.114-.424.19-.543.239l-.13.022C79.209,35.9,79.215,35.853,79.313,35.793ZM78.226,36.8l.636.12.31.065h.1l.141.038c.141.043.136.065,0,.071h-.554l-.717-.043h-.223A.407.407,0,0,1,78,36.94a.82.82,0,0,1,.141-.1Zm-.543-7.106c.065-.076.212-.217.348-.342l.087-.076c0,.071,0,.2-.087.244h0a2.136,2.136,0,0,1-.342.223C77.623,29.763,77.634,29.741,77.683,29.692Zm0,7.215.348-.2.076-.043-.076.054-.348.223-.049.033C77.362,37.1,77.487,37.021,77.683,36.907Zm-.614-2.428.06-.033c-.043,0,0,.054,0,.1a.152.152,0,0,1-.065,0c-.087.038-.1-.005-.005-.065Zm0,8.258c.1-.043.293-.13.614-.261l.348-.147.141-.06.125-.054a.863.863,0,0,0,.071.071l-.2.071-.141.054-.348.13c-.288.109-.505.185-.614.217s-.114.027-.011-.022Zm0,3.738h0a3.026,3.026,0,0,1,.592-.2,2.742,2.742,0,0,0,.348-.06h.1l-.1.043-.109.049a2.027,2.027,0,0,0-.239.043c-.2.049-.413.125-.614.179l-.185.049ZM34.222,22.326l-.342.3-.12-.125c.168-.081.315-.163.462-.25a3.085,3.085,0,0,0,.353-.244Zm1.7,2.217-.152-.054-.3-.109a1.13,1.13,0,0,1,.3,0,2.559,2.559,0,0,1,.3.081Zm5.286-5.726h.081l.282-.027c.951-.1,1.038-.033,0,.12l-.282.043-.2.027Zm-1.087.619L40.2,19.4l-.092.043Zm2.613,2.048-1.179.348-.282.081-.543.141c-.255.065-.435.109-.543.125h-.1c-.06,0-.06,0,0-.06a.576.576,0,0,1,.1-.06c.114-.065.3-.152.543-.261l.543-.217.282-.114,1.179-.462.706-.277.141-.054.353-.13.348-.13.543-.212-.543.581L44,21.076h-.065l-.353.109-.141.043Zm.739,2.13.109-.1.1-.092a.174.174,0,0,1-.049,0l.076-.038h0l.25-.076h.114l.234-.033c.717-.087.429,0,0,.125l-.348.087-.353.081Zm.809.174-.348.049h-.185l.185-.1.348-.206a2.472,2.472,0,0,1,1.032-.38,1.38,1.38,0,0,1-1.005.636Zm5.525-6.313h0c.19.033.2,0,0,.033h-.06Zm-2.667-1-.13.043a.234.234,0,0,1,.13-.092C47.26,16.377,47.363,16.393,47.141,16.475Zm.478,2.358-.326.087.168-.174.158-.038.19-.043.543-.125h.06c.223-.038.206,0,0,.06h-.06c-.136.049-.326.1-.543.174Zm.82,3.982h-.06l-.206.054a.608.608,0,0,1,.206-.179.223.223,0,0,1,.06-.038,1.587,1.587,0,0,1,.2-.092,1.934,1.934,0,0,1,.462-.12h.087c.141,0,.185.038,0,.12L49.1,22.6c-.109.043-.255.092-.462.152Zm2.716,1.374a3.8,3.8,0,0,1-.5.076l-.239.033h-.174l-.418.2-.163.081-.1.038-.364.13h-.087c-.456.152-.326.065,0-.1L49.2,24.6c.109-.06.234-.12.364-.179l.261-.136.217-.1h.614a4.382,4.382,0,0,1,.5,0s-.011.022-.016.022Zm2.781-1.967h-.043l-.038-.071h.081c.266-.049.386-.038-.016.087Zm.543-7.008-.234.049H54.3l.185-.065c.462-.158.652-.13-.011.011Zm1.01-1.6.25-.038h.38c.646-.092.674-.054,0,.038h-.38l-.321.038Zm.619,3.765h0C56.5,17.306,56.349,17.322,56.11,17.382Zm0-2.564H56l-.114.027-.152.033-.223.049a.646.646,0,0,0,.223-.244l.054-.076h.326C58.783,14.161,58.544,14.28,56.11,14.818Zm6.758,3.868-.543-.081-.543-.081c.065-.092.136-.185.2-.282l.348.038a3.315,3.315,0,0,1,.543.087c.359.065.717.147,1.054.212h.038l-.038.027c-.1.06-.152.163-.2.185C63.439,18.767,63.151,18.729,62.868,18.686Zm1.054.125h0a1.087,1.087,0,0,1,.266,0h0a.782.782,0,0,1-.266,0Zm.8.065-.543-.033h0l.179-.179.353.071c.8.152.657.174.011.141Zm3.727,5.71-.266.12c-.5.206-.342.06,0-.206l.321-.244a1.364,1.364,0,0,1-.054.331Zm3.129-1.9-.277.342-.054.071c-.31.038-.158-.1.054-.255l.277-.19.065-.049Zm-.983,21.491-.288.1-.174.049h0l-.206.092.212-.1.092-.043.081-.027.288-.087c.136-.038.1-.022-.011.016Zm1.467,4.183Zm.174,0h-.049L72.1,48.4l.071-.033h0l.1-.049Zm.359-.543h0l-.071.049h0l-.266.19h-.038l-.087.038h-.065l-.223.109a.185.185,0,0,1,0-.109l-.255.147h0l.261-.158h0l.076-.043.125-.136.043-.043h.087l.3-.081H72.6Zm-1.016.581v.076h0a.593.593,0,0,1,0-.1Zm-.25-3.8H71.3l-.076.033.076-.033h.027l.25-.092c.31-.114.636-.217.163,0a.83.83,0,0,0-.163,0,1.461,1.461,0,0,0-.255.1Zm1.63,3.461Zm.06-.13h0l-.038-.087h.054l.038.081ZM75.26,66.042h-.625a.613.613,0,0,1,.027-.217h.206l.391.06c.3.1.331.136-.022.163Zm-.473-5.807c.038,0,0-.1.033-.114h.049c.114.038.1.081,0,.1Zm.793.13-.087-.043.071-.033h0a1.087,1.087,0,0,1,.272.168.831.831,0,0,1-.277-.087Zm.63-13.218-.348.1-.125.038.125-.06h.043l.3-.081c.353-.125.261-.081-.022.005Zm0-6.28c.081.027.1.038,0,0h0ZM76.124,46.6a.315.315,0,0,0,.087,0,.293.293,0,0,0,.158-.038l-.158.076h0l-.348.092a2.221,2.221,0,0,1-.282.065h0l.282-.114.228-.076Zm-.277-6.128h0a.144.144,0,0,1,.125.043l-.071.033a.076.076,0,0,1-.054,0c-.033,0-.081-.033-.12,0Zm-.337.663a.13.13,0,0,0,.054.043.1.1,0,0,0,.087,0l-.071.033h0l-.087.038C75.51,41.226,75.51,41.193,75.51,41.134Zm.054,10.93h0a.271.271,0,0,0,.043-.109l.228.185a3.385,3.385,0,0,1,.348.3h0a2.347,2.347,0,0,1-.348-.2l-.282-.185h-.038l-.049-.043Zm-.326-5.889h.038C75.548,46.05,75.466,46.137,75.238,46.175Zm0-1.336H75.2Zm-.5,6.519.109.081.391.282.163.12-.141.065h0l-.391-.234-.109-.065-.168-.1-.462-.282.06-.234c.136.081.266.168.4.266ZM74,48l-.174.054h0L74,47.973l.1-.043c.206-.081.109,0-.1.076Zm-.109-2.336a.456.456,0,0,0,.109.043.239.239,0,0,1,.1.065h0a.3.3,0,0,1-.1,0h-.1a.229.229,0,0,1-.016-.1ZM74,37.754c.049.033.109.092.13.109l-.071.033L74,37.852a.543.543,0,0,1-.12-.076l.065-.033A.076.076,0,0,1,74,37.76Zm-.174-.777L73.771,37a.624.624,0,0,0,0-.1h.06c.049.038.081.038-.005.081Zm-.087-1.5.087.087.06.054h-.06s-.071-.071-.109-.054c.049.011.049-.022.022-.081Zm-.288-.174h.038a.847.847,0,0,1,.141.12l-.071.027h-.071l-.141-.081Zm-.375,8.584.071-.033.065-.033.038.087a.266.266,0,0,0-.1,0,.261.261,0,0,0-.109,0Zm-.543,1.69H72.6l.071-.033h-.136Zm.06.429h0c.179.038.255.071,0,.1h-.114l-.293-.076h-.152l-.228-.081h.38l.3.043h0Zm-.1-2.667h0l-.168.076-.1.043Zm0,2.255h-.424l-.445.054.081-.016h.462Zm-.668-3.26.217.06h.065l.087.033h-.435c.049-.005.054-.054.049-.109Zm-.543-4.65v-.027h0l.277-.13.223-.1-.223.141-.255.168h-.027l-.076.049-.038-.087.114.033h0Zm-.706,10.805c.076.033.1.071,0,.076h-.065c.027,0,0-.071,0-.1Zm0,.69.337-.185h.179l-.543.239-.288.125-.174.071h0l.174-.1Zm-.288,3.493h0c.234-.022.179.022.011-.016Zm.076,5.7-.076.081-.092.1h-.081c-.065,0-.049-.054,0-.076a.826.826,0,0,1,.174-.065Zm-.288-10.029h.071a.261.261,0,0,0,.141,0,.315.315,0,0,1-.141.033.543.543,0,0,1-.136,0Zm-.25,10.675h0a.126.126,0,0,0,.038.087h-.043c-.06-.038-.081-.049-.016-.081ZM69.534,48.6h0l-.065.033ZM68.991,62.88l.054-.114.473.092.293.054.321.06.174.038.288.054.706.147.277.065c.494.12.543.179,0,.152H71.3l-.706-.065h-.462l-.321-.033-.293-.033-.543-.06a1.163,1.163,0,0,0,0,.239c-.038,0-.033.114-.065.13s-.141-.038-.174,0c-.043-.081-.081-.168-.12-.255a1.5,1.5,0,0,1,.3-.234V63.07l-.543-.141A2.173,2.173,0,0,1,68.991,62.88ZM62.33,71.9l.234-.114a.779.779,0,0,1-.092.25H62.33c-.4.071-.261-.016-.005-.136Zm-.608,1.717.288-.239.038.081a.358.358,0,0,0,.043.185c-.141.092-.266.163-.369.217-.505.277-.489.174-.005-.244Zm-5.683,2.173a.132.132,0,0,1,.076.027,1.151,1.151,0,0,1,.109.092l-.071.033-.038-.038-.109-.1Zm-.168-2.173h0c.049,0,.065,0,.092.065h-.071s-.065-.043-.087-.033Zm-1.059-.826.087.076.174.136.136.109c.168.13.337.266.511.391l-.033.12a4.585,4.585,0,0,0-.478-.321l-.136-.076-.174-.092-.179-.092C54.741,72.942,54.79,72.876,54.812,72.795ZM40.785,77.869c-.054.06-.087.065,0,0l.076-.071a.331.331,0,0,1-.076.06Zm1.282-1.163.7.543c.543.429.674.543,0,.141l-.826-.494c.065-.065.06-.168.13-.2Zm-.782,3.151v.06l.092.19.168-.076h0l.592.418c0,.043,0,.31.081.272,0-.065,0-.109.065-.136h0a.5.5,0,0,1,.2-.2c.049.049.081.065.141.038a1.255,1.255,0,0,1-.081.451c-.326-.163-.663-.3-1-.435h-.038l-.152-.342a.2.2,0,0,1-.092.136.255.255,0,0,1-.076.043h-.033A2.471,2.471,0,0,1,41.284,79.857ZM40.8,72.42h.168c0,.065,0,.1-.065.13h-.1c-.255-.1-.2-.136-.011-.152Zm-.652,7.144c.038-.087.071-.179.1-.272.114-.321.217-.641.337-.962A10.924,10.924,0,0,0,40.5,79.6l-.255.174-.1.065-.147.1c.043-.141.092-.266.136-.391Zm-.359-2.423h.038l.1.027s0,.1-.033.114l-.071.033-.1.049C39.741,77.288,39.763,77.212,39.785,77.141Zm-.277,3.716.087.033a.2.2,0,0,0,.125,0l-.125.19-.071.109c-.038-.038-.06-.076-.109-.054a.365.365,0,0,0,.092-.282Zm.087,1.695.228.049.31.06h.1c.625.141.777.223,0,.174h-.641l-.543-.049h-.266a1.027,1.027,0,0,0,0-.315l.25.043Zm-1.5-4.221h.445a4.427,4.427,0,0,1,.5.049.832.832,0,0,1-.06.228l-.44-.114a2.88,2.88,0,0,0-.478-.076c-.038-.038-.038-.065.033-.092ZM37.117,82.5l.31.033a1.917,1.917,0,0,0,.4.331l-.706.761-.12.13c.038-.092.076-.19.12-.288.076-.2.152-.391.217-.587l-.217-.043c-.543-.109-1.01-.212-1.336-.293-.576-.147-.706-.228,0-.179.293.016.728.06,1.336.13ZM32.837,72.252c.516.092.989.185,1.4.266,1.755.348,2.341.543,0,.353-.418-.033-.929-.081-1.543-.141a1.325,1.325,0,0,1,.147-.478Zm-6.367,1.2H26.5l.038.038h.038l.152.342.206-.1.435.348.293.239a.505.505,0,0,1,.234-.206l.109.049a1.445,1.445,0,0,1-.049.435c-.2-.076-.391-.163-.587-.244s-.321-.13-.484-.185c-.054-.114-.1-.228-.158-.337-.071.033-.092.147-.163.179h0c-.06-.038-.13,0-.19-.087Zm-1.586,1.141h0c.054.038.087.033.152,0l-.152.228-.043.065c-.033-.033-.06-.071-.1-.049.1-.038.125-.19.147-.266ZM37.2,66.238a.239.239,0,0,1-.081.136l-.081.043c.054,0,.054-.06,0-.114l.054-.027Zm2.716-8.431-.092.043-.228.109-.158.071a.223.223,0,0,1,.158-.174h0a.609.609,0,0,0,.223,0,1.412,1.412,0,0,0,.2-.071Zm.321,1.418-.1.033h0l.1-.038c.239-.125.244-.1,0-.005ZM55.626,57.23l.1.033c.179.054.179.092,0,.092H55.6A.771.771,0,0,0,55.626,57.23ZM56,54.482l.114-.109.049-.049h.174l-.065.033-.158.071L56,54.482h-.038Zm0,.071h.071L56,54.579h0l-.065.033a.593.593,0,0,1,0-.1A.127.127,0,0,0,56,54.552Zm-14.712,5.8h-.038l.081-.038C41.426,60.3,41.5,60.24,41.284,60.349Zm2.352-5.813-.071-.054h.109a.418.418,0,0,0,.038.087.185.185,0,0,0-.1-.033Zm2.716,2.553-.348.065.136-.06.212-.033c.489-.076.364-.022-.033.027Zm2.32,2.532h-.065v-.1a.206.206,0,0,0,.071.043.109.109,0,0,0,.071,0Zm.315-.657a1.016,1.016,0,0,0-.321.033l-.2.038H48.33a.359.359,0,0,0,.081-.049.25.25,0,0,0,.049-.114h.6Zm-.321-1.7-.2.06h-.06l-.543.174-.19.06L47.2,57.7l-.141.043-.331.1.31-.141h0l.141-.06a4.917,4.917,0,0,1,.478-.163l.19-.054.543-.152h.049l.087-.038h.109c.228-.06.375-.092.462-.109h.087l-.087.038Zm-1.63-2.472h.141a3.26,3.26,0,0,1,.359-.06.206.206,0,0,0-.109.125l.114-.033a.3.3,0,0,0,.114-.12v-.038h.168l.543-.1h.06l.2-.033h.081l-.081.087-.087.092h-.168l-.543.076h-.3l-.065.038h-.049s-.163.06-.25.081h-.141l-.359.06a.375.375,0,0,0,.234-.212.479.479,0,0,0,.109.038Zm0-.543.06-.06c0,.054,0,.1-.033.12h0c-.163.054-.12.016-.065-.054ZM47.8,56.72l.168-.076-.168.081h0l-.185.081Zm0-1.407.033-.043s.038.087,0,.1l-.033.038c-.087,0-.049-.038,0-.1Zm.543,1.255h.043v.1h-.049c-.027-.005-.043-.054.038-.1Zm.717,2.331h0Zm2.428-4.189a1.272,1.272,0,0,0,0,.163,7.5,7.5,0,0,0-.065.9h-.033a1.3,1.3,0,0,1-.25.206l-.114.06.114.06.1.049-.071.033h-.033c-.043,0-.114-.038-.141,0l-.337.255.478-.06h.147a1.8,1.8,0,0,0,0,.418h-.63l-.239.223-.592.543-.038.043a1.049,1.049,0,0,1-.223.065,1.717,1.717,0,0,0-.364.1h0a11.447,11.447,0,0,0,.212-1.418l.152-.31.1-.206-.1.038h0l-.038-.081h.185l.114-.228.2-.359.4.1h0l.212-.212.5-.543.12-.141c0,.043.065.152.13.141h0l.092.033a.228.228,0,0,0,.12,0c.011-.043-.038.038-.071.125Zm-1.717.2.043-.049v.1H49.77a.542.542,0,1,0,.038-.049Zm1.69-.788-.109.038-.25.109-.043.054a.136.136,0,0,1,.087-.141h.043l.206-.076h.109l.125-.033a2.543,2.543,0,0,0,.288-.092h.033l-.033.038-.1.125a1.086,1.086,0,0,0-.185,0Zm.543-1.407h.261a.543.543,0,0,1-.136.038h.016a.125.125,0,0,1-.076,0h0a.261.261,0,0,1-.12.152h-.033l-.081.038a.594.594,0,0,1,0-.1l.087-.043.033-.511a.109.109,0,0,0-.033.06.1.1,0,0,0,0,.043l-.282.125c-.168.071-.125.033,0-.043l.288-.168h.033l.1-.054a.25.25,0,0,0-.1.06v.494h0Zm.141-.022h0Zm.043,1.211H52.15l-.092.043h-.033l.033-.12a.234.234,0,0,1,.092,0h.005Zm-.174.081H51.97Zm-.467-1.016s.038.076.076.065l-.125.06-.109.049h0c.043,0,.071-.087.109-.13a.092.092,0,0,1,.043-.06Zm.815,5.889h0c-.043.027-.054.06-.076.13l-.092.043h-.043l-.2.087h-.033c-.3.13-.228.081,0-.049h.033l.2-.109H52.2l.168-.092h.054Zm.771-1.9a.766.766,0,0,1-.158,0,4.616,4.616,0,0,1-.614-.071h-.141a1.147,1.147,0,0,1,.054-.331h.087l.614.114.25.049a1.057,1.057,0,0,0-.1.223ZM52.367,54.65Zm0-1.95h0l.109-.049-.065.033h-.043Zm.6-.272h0l.12-.054c.619-.087.277,0-.12.06h0l-.2.092h0l-.087.038-.1.049.065-.033.125-.054H52.8l.179-.087h.038Zm.652,4.395a.353.353,0,0,0-.12.081.206.206,0,0,0-.049.1.163.163,0,0,0-.109-.054h-.033l-.065.033c0-.092,0-.114.1-.147q0-.06,0-.12h.13a.06.06,0,0,0,.043,0v.12Zm-.12-3.33-.071.033-.168.081.239-.114.1-.043.136-.065Zm.424,4.3-.424.266-.272.174.272-.2.424-.315.386-.288c.038,0,.076.065.109.049Zm0-.5c-.277.12-.293.114,0-.049l.543-.3c-.033,0,0,.1,0,.1Zm-.109-3.841a.945.945,0,0,1,0-.12h.081c.163,0,.13,0,0,.071Zm.761,2.108-.1.049c-.4.185-.337.152,0,0l.272-.125Zm.326,4.6h-.011C54.953,60.2,54.969,60.191,54.9,60.164Zm.174-2.521c-.125,0-.19.038,0-.054h.049c.033,0,.071.071.071.071Zm.315-.3a.646.646,0,0,0-.179,0h-.239a.223.223,0,0,1,.1-.147h.136a.956.956,0,0,1,.277,0Zm.147-5.194-.326.147v4.1l.239-.109-.174.081h-.065l-.136.065h0l.136-4.167.223-.1ZM53.361,51.2l.141-.071.424-.223a3.846,3.846,0,0,0,.543-.342c.054-.049.076-.087.043-.1a3.386,3.386,0,0,0,.386-.223l.174-.109.136-.081a2.085,2.085,0,0,1,.2-.076.652.652,0,0,0-.19.174l-.043.038-.092.06-.174.114-.429.288-.543.364-.424.282-.3.2Zm-.38.847-.212-.06v-.081h0V52c-.1-.043-.19,0-.288-.071l-.081.125h0L52.3,52c.033,0,0-.114.06-.13a.19.19,0,0,1,.06,0,2.1,2.1,0,0,1,.391.033h.217l.125.043V51.9l.109.054h-.033c.321.2.206.228-.25.1Zm-.723-1.88.1.049H52.3a.542.542,0,0,0-.038-.049Zm-.652-2.412v-.282c.076-.081.168-.19.266-.315l.033-.043c.065-.087.136-.185.2-.282h0l.043-.071a1.977,1.977,0,0,0,.174-.359.8.8,0,0,0,0-.625V45.74h0a1.586,1.586,0,0,0,.614-.543q.065-.1.13-.212V45.7l-.125.2-.614.956-.174.261-.043.065h0l-.2.31-.033.049-.288.445v.033ZM51.373,51.8h.109l.125-.033.185-.043c-.065.033-.071.071-.065.136a.331.331,0,0,1,.168,0h.033l.185.033s0,.1-.033.114l-.152-.033h-.033a.467.467,0,0,0-.2,0,1.26,1.26,0,0,1-.087.239l-.071.141-.054-.152-.109-.277-.033-.1Zm-.25.451a.141.141,0,0,1,.06-.065c.049.114.13.223.19.337a.5.5,0,0,1,.038.076h-.038a2.015,2.015,0,0,0-.25-.1h-.071a.9.9,0,0,1,.087-.244Zm-.5-2.374.234-.206a1.174,1.174,0,0,0-.054.331l-.179.081c-.364.152-.223.005.016-.206Zm-.239,4.161.239-.136c.13-.071.255-.141.348-.185h.071l.081-.038.087-.043-.087.109-.043.054-.4.391h-.033l-.239.109h-.071l-.071.033-.375.174h0l.581-.168a.2.2,0,0,0-.13.168.837.837,0,0,0-.451.1h-.071l-.19.114c.043.038.049.06,0,.054h-.076l-.288.163-.087.049-.38.212-.081.038-.2.087-.06.033-.212.092a2.487,2.487,0,0,1,.212-.25l.06-.071a1.955,1.955,0,0,1,.2-.179.75.75,0,0,1,.136-.081,2.717,2.717,0,0,1,.326-.234l.065-.043v-.114h0l.071.049c.1-.065.2-.125.293-.2l.043-.011h.158l.19-.033Zm-.837.283.033-.038s.038.081,0,.1h-.038C49.433,54.422,49.493,54.373,49.547,54.324Zm0-4,.261-.141.071-.033-.071.087-.06.076-.2.087c-.234.071-.168.011,0-.092ZM49.1,54.405h.087c.266,0,.217.033,0,.092h-.152Zm-.717-3.211.06-.038.2-.1.3-.163h0v.1l-.3.141-.2.087h-.06c-.25.12-.266.114.005-.038Zm-2.358,1.749.3.147.543.282s0,.641.092.467a.679.679,0,0,0,.092-.342H47.1l.478.25.19.1.543.3.06.038.2.12h0l-.163.179h-.092a3.3,3.3,0,0,1-.543-.206l-.19-.081L47.26,54a.593.593,0,0,1,0-.1l-.033.114-.081-.043A1.14,1.14,0,0,0,47,53.9c-.217-.109-.451-.2-.679-.3a4.215,4.215,0,0,1-.418-.2,1.413,1.413,0,0,0,.114-.467Zm.3,2.244h.364l-.109.228.185-.06-.228.147-.212.44v.038a1.228,1.228,0,0,0,0,.315l-.158-.451h-.038v-.152l-.206-.543Zm-.886-4.346.065-.033c-.049,0-.033.065-.027.114h-.038c-.076.033-.092-.016,0-.081ZM44.31,52.694h0a.217.217,0,0,0-.114.152l-.234.109c-.511.228-.353.13,0-.065l.348-.2Zm-.348-14.809.239-.114c-.033.081-.065.168-.092.25h-.147c-.38.065-.25.005,0-.141Zm-.494,1.63.141-.1h.033l.038.081s0,.141.043.185l-.114.054-.141.065c-.674.244-.7.2-.011-.315Zm-.706,14.668a1.548,1.548,0,0,1,.3-.19c.065-.033.174,0,.212,0l-.511.234-.277.13a2.174,2.174,0,0,0,.277-.185Zm-1.211.5h.081a.364.364,0,0,0,.2-.2c0,.092,0,.109-.1.147l-.1.049h-.049c-.2.092-.456.206-.065,0ZM31.875,38.928c.3.06.158.087,0,.054A.369.369,0,0,1,31.7,38.9ZM20.064,72.61l-.543.033.451-.1h.071c.543,0,.321.027.022.049Zm1.994.717H22.1Zm.983-1.63-.359.109.174-.081.185-.054c.56-.179.391-.114,0,.005Zm.809-3.922h.065l.043.087h0l.2-.092h.407a.5.5,0,0,0,.185-.065h0l.125-.06h0l-.109.054h0l-.136.065h-.049l-.109.038a2.281,2.281,0,0,0-.462.147l-.038-.087-.2.092h0l-.136.065.141-.13Zm-.375-.445h0l.141-.06-.071.033-.071.033-.12.027Zm-1.407-.272h.043c.983-.288.869-.239,0,.1l-.141.06Zm-.435,1.13a1.173,1.173,0,0,0,.478-.125c.136-.054.261-.12.348-.158l.581.081c.413.071.467.125,0,.147H22.4l.049-.206a.168.168,0,0,1-.125.136,1.026,1.026,0,0,0-.212.038,2.846,2.846,0,0,0-.511.2Zm.646.418-.136.06h-.033l-.1.049-.071.033.174-.081ZM21.184,38.8h0l-.071.033Zm-.31,32.6.31.06a7.064,7.064,0,0,1,.924.223q.081.033,0,.049a6.679,6.679,0,0,1-.924-.06l-.364-.043c.054-.027.065-.19.06-.234Zm-1.211-2.624.4-.13c.733-.239.679-.19,0,0l-.543.168Zm-1.163.7-.369.114.369-.168h.038c.587-.141.288-.049-.033.049Zm0-29.494.158-.1-.158.114c-1.168.815-1.662,1.076.005-.016Zm-3.341,1.353-.033-.076c.027-.043.06-.087.087-.136h.478c.7,0,.826,0,0,.13Z" transform="translate(-4.887 -4.937)" fill="#f70"/>
      <path id="Path_21" data-name="Path 21" d="M131.323,76.86l-.033.016h0Z" transform="translate(-59.966 -35.155)" fill="#f70"/>
      <path id="Path_22" data-name="Path 22" d="M83.56,91.06H83.6Z" transform="translate(-38.166 -41.641)" fill="#f70"/>
      <path id="Path_23" data-name="Path 23" d="M85.907,86.506l.087.033.033-.114h-.12C85.755,86.4,85.766,86.441,85.907,86.506Z" transform="translate(-39.188 -39.521)" fill="#f70"/>
      <path id="Path_24" data-name="Path 24" d="M128.53,59V58.93C128.47,59,128.432,59.039,128.53,59Z" transform="translate(-58.678 -26.966)" fill="#f70"/>
      <path id="Path_25" data-name="Path 25" d="M83.56,91.06Z" transform="translate(-38.166 -41.641)" fill="#f70"/>
      <path id="Path_26" data-name="Path 26" d="M83.7,91Z" transform="translate(-38.23 -41.613)" fill="#f70"/>
    </g>
  </g>
</svg>
