<svg xmlns="http://www.w3.org/2000/svg" width="92.268" height="24.03" viewBox="0 0 92.268 24.03">
  <g id="Group_11617" data-name="Group 11617" transform="translate(0 -0.972)">
    <path id="Path_17147" data-name="Path 17147" d="M14.763,1.505,10.2,16.2v8.345H4.389V16.2L0,1.505H5.738q1.349,6.747,1.52,9.075Q7.779,6.9,9,1.505Z" fill="#294460"/>
    <path id="Path_17148" data-name="Path 17148" d="M39.548,14.968a48.143,48.143,0,0,1-.171,4.919,5.4,5.4,0,0,1-1.07,2.635,5.733,5.733,0,0,1-2.442,1.823,9.214,9.214,0,0,1-3.566.641,9.4,9.4,0,0,1-3.471-.606,5.679,5.679,0,0,1-2.473-1.814,5.288,5.288,0,0,1-1.115-2.635,45.807,45.807,0,0,1-.18-4.981V11a47.127,47.127,0,0,1,.171-4.915A5.345,5.345,0,0,1,26.3,3.447a5.757,5.757,0,0,1,2.428-1.836A9.224,9.224,0,0,1,32.3.974a9.391,9.391,0,0,1,3.467.6A5.7,5.7,0,0,1,38.244,3.39,5.358,5.358,0,0,1,39.36,6.025,46.972,46.972,0,0,1,39.539,11ZM33.289,7.4A6.786,6.786,0,0,0,33.1,5.344.73.73,0,0,0,32.8,5a.756.756,0,0,0-.457-.1.876.876,0,0,0-.424.087.853.853,0,0,0-.327.278,4.9,4.9,0,0,0-.261,2.139V18.166a10.025,10.025,0,0,0,.171,2.477.733.733,0,0,0,.314.371.761.761,0,0,0,.482.1.792.792,0,0,0,.509-.129.761.761,0,0,0,.309-.416,10.952,10.952,0,0,0,.18-2.574V7.409Z" fill="#294460"/>
    <path id="Path_17149" data-name="Path 17149" d="M66.173,14.968A46.969,46.969,0,0,1,66,19.887a5.315,5.315,0,0,1-1.07,2.635A5.689,5.689,0,0,1,62.5,24.359,9.214,9.214,0,0,1,58.933,25a9.4,9.4,0,0,1-3.471-.606,5.692,5.692,0,0,1-2.478-1.814,5.328,5.328,0,0,1-1.115-2.635,47,47,0,0,1-.18-4.981V11.01A48.01,48.01,0,0,1,51.86,6.1,5.394,5.394,0,0,1,52.935,3.46a5.758,5.758,0,0,1,2.428-1.836A9.183,9.183,0,0,1,58.929.987a9.4,9.4,0,0,1,3.472.6A5.728,5.728,0,0,1,64.878,3.4a5.357,5.357,0,0,1,1.115,2.635,46.974,46.974,0,0,1,.18,4.977ZM59.914,7.4a6.786,6.786,0,0,0-.184-2.056A.726.726,0,0,0,59.422,5a.752.752,0,0,0-.457-.095.876.876,0,0,0-.424.087.853.853,0,0,0-.327.278,4.9,4.9,0,0,0-.261,2.139V18.165a10.272,10.272,0,0,0,.171,2.477.733.733,0,0,0,.314.371.761.761,0,0,0,.482.1.788.788,0,0,0,.51-.128.756.756,0,0,0,.308-.417,10.951,10.951,0,0,0,.18-2.574V7.408Z" fill="#294460"/>
    <path id="Path_17150" data-name="Path 17150" d="M92.268,1.505,89.084,24.539h-9.5l-3.6-23.034h6.6q1.151,9.523,1.646,16.107.486-6.663,1.03-11.824l.45-4.283Z" fill="#294460"/>
  </g>
</svg>
