<svg xmlns="http://www.w3.org/2000/svg" width="593.34" height="181.941"><defs><linearGradient id="a" x1=".499" y1="1" x2=".499" gradientUnits="objectBoundingBox"><stop offset="0" stop-color="#006836"/><stop offset="1" stop-color="#7ec242"/></linearGradient></defs><path d="M391.8 231.1l41.3-45.6-24.3-24.2h-75.9l-23.5 24.4 61.9 68.4s16.6-15.8 21.7-33.3c2.7-8.3 2.9-30.4-21.7-50.5 0 0-21 17.7-21 33-.4 12.3 8.2 23.5 21 33.8 0 0 12.7-19.2.8-46.5 0 0 2.9 24.5-2.4 35 0 0-11.8-10-11.8-20.7s6.2-18.4 13.4-23.8a39.2 39.2 0 0115.3 30.3c.3 11.6-5.1 22.1-14.8 31.7l-52.4-57.5 16.6-17h70.3l17.1 17.1-25.6 28.2c-.2 0-1.4 10.5-6 17.2z" transform="translate(-74.43 -161.3)" fill="url(#a)"/><path d="M15.2 93.541a24.419 24.419 0 019 1.7 21.247 21.247 0 0112 12 22.736 22.736 0 011.7 8.6 22.8 22.8 0 01-6.4 15.8 21.081 21.081 0 01-7.3 4.8 24.419 24.419 0 01-9 1.7H0v-44.5h15.2zm-.9 40.2a20.285 20.285 0 007.4-1.4 16.89 16.89 0 005.9-3.9 17.169 17.169 0 003.8-5.8 18.1 18.1 0 001.4-6.9 18.654 18.654 0 00-1.2-6.5 19.129 19.129 0 00-3.5-5.8 16.865 16.865 0 00-5.9-4.1 20.077 20.077 0 00-7.8-1.5H5.2v35.9h9.1zM74.1 138.841a21.051 21.051 0 01-8.6-1.8 23.887 23.887 0 01-7.2-5 21.487 21.487 0 01-4.8-7.4 24.286 24.286 0 01-1.7-8.9 23.764 23.764 0 011.7-8.8 21.487 21.487 0 014.8-7.4 23.887 23.887 0 017.2-5 21.445 21.445 0 0117.2 0 23.887 23.887 0 017.2 5 21.487 21.487 0 014.8 7.4 23.885 23.885 0 010 17.7 21.487 21.487 0 01-4.8 7.4 23.887 23.887 0 01-7.2 5 21.051 21.051 0 01-8.6 1.8zm0-4.4a16.491 16.491 0 006.9-1.5 17.784 17.784 0 005.7-4 18.6 18.6 0 003.8-6 19.214 19.214 0 000-14.4 18.6 18.6 0 00-3.8-6 17 17 0 00-19.5-4 17.784 17.784 0 00-5.7 4 18.6 18.6 0 00-3.8 6 19.214 19.214 0 000 14.4 18.6 18.6 0 003.8 6 16.731 16.731 0 0012.6 5.5zM141.742 93.541h5.2l-20.4 45.4-20.1-45.4h5.4l14.8 34.1zM185.908 97.741h-21.7v15.1h19.6v4.3h-19.6v16.6h21.7v4.3h-26.7v-44.5h26.6v4.2zM87 180.041h7.5v1.5h-9.2v-15.8h1.6v14.3zM118.737 181.541l-1.5-4h-6.3l-1.5 4h-1.7l6.4-16.2 6.3 16.2zm-7.2-5.4h5.2l-2.6-6.9zM183.524 172.641h5.8v6.2a6.48 6.48 0 01-2 1.7 8.18 8.18 0 01-2.4 1 8.793 8.793 0 01-2 .3 8.149 8.149 0 01-3.1-.6 7.611 7.611 0 01-2.6-1.8 8.989 8.989 0 01-1.7-2.6 8.662 8.662 0 01-.6-3.2 8.149 8.149 0 01.6-3.1 7.821 7.821 0 011.7-2.6 10 10 0 012.6-1.8 8.833 8.833 0 016.4 0 9.482 9.482 0 012.7 1.7l-1 1.2a8.554 8.554 0 00-2.2-1.5 6.6 6.6 0 00-2.7-.6 6.963 6.963 0 00-2.5.5 5.956 5.956 0 00-2.1 1.4 7.705 7.705 0 00-1.4 2.1 7.511 7.511 0 00-.5 2.6 6.963 6.963 0 00.5 2.5 6.435 6.435 0 003.5 3.5 6.874 6.874 0 002.4.5 6.6 6.6 0 002.7-.6 7.123 7.123 0 002.2-1.5v-4h-4.4v-1.3zM214.359 180.041a1.949 1.949 0 00.8-.1v1.5a3.083 3.083 0 01-1 .1 3.194 3.194 0 01-1.4-.3 2.809 2.809 0 01-1.2-1 7.823 7.823 0 01-1.2-1.9c-.4-.8-.8-1.4-1-1.8a8.649 8.649 0 00-.7-1 5.01 5.01 0 00-.8-.7 1.689 1.689 0 00-1-.3h-1v6.8h-1.8v-15.8h5.4a8.752 8.752 0 012.4.3 4.043 4.043 0 011.7 1 4.508 4.508 0 011 1.4 4.671 4.671 0 01.3 1.7 4.31 4.31 0 01-.3 1.7 3.805 3.805 0 01-.9 1.3 4.882 4.882 0 01-1.6 1 6.051 6.051 0 01-2.4.4 5.771 5.771 0 011 .8 11.824 11.824 0 011.1 1.8 15.129 15.129 0 00.9 1.6 4.235 4.235 0 00.5.7 2.651 2.651 0 00.6.5c.1.3.3.3.6.3zm-8.7-6.8h2.7c3.1 0 4.7-1 4.7-3.1a2.583 2.583 0 00-.9-2.1 4.251 4.251 0 00-2.8-.8h-3.7v6zM235.992 181.841a8.025 8.025 0 01-3-.6 6.422 6.422 0 01-2.5-1.8 8.99 8.99 0 01-1.7-2.6 8.662 8.662 0 01-.6-3.2 8.149 8.149 0 01.6-3.1 7.82 7.82 0 011.7-2.6 7.251 7.251 0 015.5-2.4 8.025 8.025 0 013 .6 6.422 6.422 0 012.5 1.8 8.99 8.99 0 011.7 2.6 8.149 8.149 0 01.6 3.1 8.662 8.662 0 01-.6 3.2 7.82 7.82 0 01-1.7 2.6 7.631 7.631 0 01-2.5 1.8 7.306 7.306 0 01-3 .6zm0-1.6a6.874 6.874 0 002.4-.5 5.579 5.579 0 002-1.4 5.71 5.71 0 001.3-2.1 7.512 7.512 0 00.5-2.6 6.963 6.963 0 00-.5-2.5 7.434 7.434 0 00-1.3-2.1 5.579 5.579 0 00-2-1.4 6.437 6.437 0 00-2.4-.5 6.874 6.874 0 00-2.4.5 5.579 5.579 0 00-2 1.4 5.71 5.71 0 00-1.3 2.1 7.419 7.419 0 00-.5 2.5 7.985 7.985 0 00.5 2.6 7.434 7.434 0 001.3 2.1 5.579 5.579 0 002 1.4 5.186 5.186 0 002.4.5zM262.731 181.841l-5.8-16.2h1.7l4.2 11.9 3.9-8.8 3.9 8.8 4.2-11.9h1.8l-5.8 16.2-4.1-9.6zM302.67 165.741v16.2l-10.4-12.1v11.8h-1.7v-16.2l10.5 12v-11.6h1.6zM368.155 167.241h-7.2v5.4h6.3v1.5h-6.3v5.9h7.2v1.5h-8.8v-15.8h8.8zM393.588 181.541l-1.5-4h-6.3l-1.5 4h-1.7l6.4-16.2 6.3 16.2zm-7.3-5.4h5.2l-2.6-6.9zM415.321 181.841a5.867 5.867 0 01-2.3-.4 6.916 6.916 0 01-1.9-1 4.428 4.428 0 01-1.2-1.5 4.058 4.058 0 01-.4-1.9v-11.3h1.9v11.1a3.36 3.36 0 001.1 2.4 3.857 3.857 0 002.8 1 4.018 4.018 0 002.8-1 2.767 2.767 0 001.1-2.4v-11.1h1.9v11.3a4.058 4.058 0 01-.4 1.9 4.427 4.427 0 01-1.2 1.5 4.895 4.895 0 01-1.9 1 5.558 5.558 0 01-2.3.4zM446.954 165.741v1.5h-4.6v14.3h-1.6v-14.3h-4.6v-1.5zM472.987 165.741l-4.6 9.6v6.2h-1.6v-6.3l-4.5-9.5h1.9l3.5 7.7 3.6-7.7zM237.396 93.341a23.894 23.894 0 018.9 1.7 24.356 24.356 0 017.3 4.8 22.134 22.134 0 016.3 15.8 22.658 22.658 0 01-1.6 8.6 20.911 20.911 0 01-4.7 7.2 20.191 20.191 0 01-7.3 4.8 22.39 22.39 0 01-8.9 1.7h-15v-44.8h15zm-.9 40.5a19.37 19.37 0 007.3-1.4 18.4 18.4 0 005.9-3.9 19 19 0 005.2-12.8 18.654 18.654 0 00-1.2-6.5 19.61 19.61 0 00-3.5-5.9 18.511 18.511 0 00-5.9-4.2 20.077 20.077 0 00-7.8-1.5h-9.1v36.2h9.1zM275.346 138.141v-44.8h4.8v44.8zM327.292 138.141l-4.6-11.3h-19.6l-4.7 11.3h-5.3l19.9-45.7 19.7 45.7zm-22.5-15.3h16.3l-8.1-19.7zM367.365 117.241l21.1-25v47h-4.8v-34.5l-16.3 19.4-16.4-19.4v34.5h-4.8v-46.9zM426.846 138.941a21.994 21.994 0 01-8.8-1.8 23.583 23.583 0 01-7.4-5 22.681 22.681 0 01-4.9-7.5 23.15 23.15 0 010-17.9 24.938 24.938 0 014.9-7.5 22.494 22.494 0 017.4-5 22.411 22.411 0 0117.6 0 23.582 23.582 0 017.4 5 23.931 23.931 0 016.7 16.4 23.321 23.321 0 01-1.8 9 22.631 22.631 0 01-12.3 12.5 21.994 21.994 0 01-8.8 1.8zm0-4.4a16.61 16.61 0 007-1.5 17.011 17.011 0 005.8-4.1 21.233 21.233 0 003.9-6.1 19.214 19.214 0 000-14.4 17.3 17.3 0 00-3.9-6 19.711 19.711 0 00-5.8-4.1 16.944 16.944 0 00-7-1.5 16.61 16.61 0 00-7 1.5 17.01 17.01 0 00-5.8 4.1 17.3 17.3 0 00-3.9 6 19.214 19.214 0 000 14.4 18.7 18.7 0 003.9 6.1 19.711 19.711 0 005.8 4.1 16.609 16.609 0 007 1.5zM499.616 93.341v45.7l-30-34.2v33.3h-5v-45.7l30 33.9v-33h5zM531.74 93.341a23.9 23.9 0 018.9 1.7 22.7 22.7 0 017.2 4.8 22.134 22.134 0 016.3 15.8 22.659 22.659 0 01-1.6 8.6 20.911 20.911 0 01-4.7 7.2 19.8 19.8 0 01-7.2 4.8 22.39 22.39 0 01-8.9 1.7h-15v-44.8h15zm-.9 40.5a19.37 19.37 0 007.3-1.4 16.936 16.936 0 005.8-3.9 18.3 18.3 0 005.1-12.8 18.655 18.655 0 00-1.2-6.5 19.61 19.61 0 00-3.5-5.9 17.43 17.43 0 00-13.6-5.7h-9.1v36.2h9.2zM579.14 138.941a20.974 20.974 0 01-13.7-5.2l2.5-3.6a17.439 17.439 0 0011 4.3 10.093 10.093 0 006.8-2.4 7.439 7.439 0 002.7-5.8 6.4 6.4 0 00-.9-3.4 9.058 9.058 0 00-2.5-2.7 43.382 43.382 0 00-6.2-3.3 37.116 37.116 0 01-6.4-3.5 11.136 11.136 0 01-2.9-2.8 10.546 10.546 0 01-1.5-3 12.858 12.858 0 01-.5-3.5 14.257 14.257 0 01.6-3.9 10.107 10.107 0 012.2-3.7 12.449 12.449 0 014.2-2.9 14.589 14.589 0 016.2-1.2 19.978 19.978 0 015.8.9 16.74 16.74 0 015.2 2.5l-2.2 3.5a21.72 21.72 0 00-4.1-1.9 14.083 14.083 0 00-4.5-.7 10.978 10.978 0 00-3.8.7 7.837 7.837 0 00-3.5 2.5 6.035 6.035 0 00-1.5 4 7.059 7.059 0 00.6 2.8 7.487 7.487 0 002.2 2.7 30.813 30.813 0 006.4 3.6 43.864 43.864 0 016.6 3.5 18.071 18.071 0 012.8 2.4 11.883 11.883 0 011.8 2.9 11 11 0 01.8 4.3 12.014 12.014 0 01-3.9 9.2c-2.6 2.5-6 3.7-10.3 3.7zM134.871 165.541h2.8a5.457 5.457 0 013.7 1 3.853 3.853 0 011.2 3.1 3.166 3.166 0 01-1.6 3 3.353 3.353 0 011.8 1.5 4.143 4.143 0 01.6 2.3 4.322 4.322 0 01-1.3 3.5 6.164 6.164 0 01-4 1.1h-3.3v-15.5zm1.4 1.5v5.2h.9a5.792 5.792 0 003.1-.6 2.336 2.336 0 00.9-2.1 2.629 2.629 0 00-.8-2 4.909 4.909 0 00-2.7-.6h-1.4zm0 6.7v5.9h2.1a4.148 4.148 0 002.7-.7 3.139 3.139 0 000-4.4 4.148 4.148 0 00-2.7-.7h-2.1zM335.324 165.541h2.8a5.457 5.457 0 013.7 1 3.853 3.853 0 011.2 3.1 3.166 3.166 0 01-1.6 3 3.353 3.353 0 011.8 1.5 4.143 4.143 0 01.6 2.3 4.322 4.322 0 01-1.3 3.5 6.164 6.164 0 01-4 1.1h-3.3v-15.5zm1.4 1.5v5.2h.9a5.792 5.792 0 003.1-.6 2.336 2.336 0 00.9-2.1 2.629 2.629 0 00-.8-2 4.909 4.909 0 00-2.7-.6h-1.4zm0 6.7v5.9h2.1a4.148 4.148 0 002.7-.7 3.139 3.139 0 000-4.4 4.148 4.148 0 00-2.7-.7h-2.1z" fill="#141414"/></svg>